<svg width="29" height="29" viewBox="0 0 29 29" fill="none" xmlns="http://www.w3.org/2000/svg">
<path d="M26.9905 11.293H20.5738V6.6263H24.6571C24.8119 6.6263 24.9602 6.56484 25.0696 6.45545C25.179 6.34605 25.2405 6.19768 25.2405 6.04297V3.70964C25.2405 2.93609 24.9332 2.19422 24.3862 1.64724C23.8392 1.10026 23.0974 0.792969 22.3238 0.792969L3.65715 0.792969C2.8836 0.792969 2.14173 1.10026 1.59475 1.64724C1.04777 2.19422 0.740479 2.93609 0.740479 3.70964L0.740479 25.8763C0.740479 26.031 0.801937 26.1794 0.911333 26.2888C1.02073 26.3982 1.1691 26.4596 1.32381 26.4596H14.7405V27.043C14.7405 27.5071 14.9249 27.9522 15.253 28.2804C15.5812 28.6086 16.0263 28.793 16.4905 28.793H26.9905C27.4546 28.793 27.8997 28.6086 28.2279 28.2804C28.5561 27.9522 28.7405 27.5071 28.7405 27.043V13.043C28.7405 12.5788 28.5561 12.1337 28.2279 11.8055C27.8997 11.4773 27.4546 11.293 26.9905 11.293ZM24.0738 3.70964V5.45964H20.5738V3.70964C20.5738 3.24551 20.7582 2.80039 21.0864 2.4722C21.4146 2.14401 21.8597 1.95964 22.3238 1.95964C22.7879 1.95964 23.2331 2.14401 23.5612 2.4722C23.8894 2.80039 24.0738 3.24551 24.0738 3.70964ZM1.90715 25.293V3.70964C1.90715 3.24551 2.09152 2.80039 2.41971 2.4722C2.7479 2.14401 3.19302 1.95964 3.65715 1.95964H19.9905C19.2146 2.9863 19.4071 2.98047 19.4071 11.293H16.4905C16.0263 11.293 15.5812 11.4773 15.253 11.8055C14.9249 12.1337 14.7405 12.5788 14.7405 13.043V25.293H1.90715ZM27.5738 27.043C27.5738 27.1977 27.5124 27.3461 27.403 27.4554C27.2936 27.5648 27.1452 27.6263 26.9905 27.6263H16.4905C16.3358 27.6263 16.1874 27.5648 16.078 27.4554C15.9686 27.3461 15.9071 27.1977 15.9071 27.043V13.043C15.9071 12.8883 15.9686 12.7399 16.078 12.6305C16.1874 12.5211 16.3358 12.4596 16.4905 12.4596H26.9905C27.1452 12.4596 27.2936 12.5211 27.403 12.6305C27.5124 12.7399 27.5738 12.8883 27.5738 13.043V27.043Z" fill="#262626"/>
<path d="M25.8245 13.626H17.6578C17.5031 13.626 17.3547 13.6874 17.2453 13.7968C17.1359 13.9062 17.0745 14.0546 17.0745 14.2093V18.876C17.0745 19.0307 17.1359 19.1791 17.2453 19.2885C17.3547 19.3979 17.5031 19.4593 17.6578 19.4593H25.8245C25.9792 19.4593 26.1275 19.3979 26.2369 19.2885C26.3463 19.1791 26.4078 19.0307 26.4078 18.876V14.2093C26.4078 14.0546 26.3463 13.9062 26.2369 13.7968C26.1275 13.6874 25.9792 13.626 25.8245 13.626ZM25.2411 18.2926H18.2411V14.7926H25.2411V18.2926Z" fill="#262626"/>
<path d="M22.3245 20.626H21.1578C21.0031 20.626 20.8547 20.6874 20.7453 20.7968C20.6359 20.9062 20.5745 21.0546 20.5745 21.2093C20.5745 21.364 20.6359 21.5124 20.7453 21.6218C20.8547 21.7312 21.0031 21.7926 21.1578 21.7926H22.3245C22.4792 21.7926 22.6275 21.7312 22.7369 21.6218C22.8463 21.5124 22.9078 21.364 22.9078 21.2093C22.9078 21.0546 22.8463 20.9062 22.7369 20.7968C22.6275 20.6874 22.4792 20.626 22.3245 20.626Z" fill="#262626"/>
<path d="M18.8245 20.626H17.6578C17.5031 20.626 17.3547 20.6874 17.2453 20.7968C17.1359 20.9062 17.0745 21.0546 17.0745 21.2093C17.0745 21.364 17.1359 21.5124 17.2453 21.6218C17.3547 21.7312 17.5031 21.7926 17.6578 21.7926H18.8245C18.9792 21.7926 19.1275 21.7312 19.2369 21.6218C19.3463 21.5124 19.4078 21.364 19.4078 21.2093C19.4078 21.0546 19.3463 20.9062 19.2369 20.7968C19.1275 20.6874 18.9792 20.626 18.8245 20.626Z" fill="#262626"/>
<path d="M25.8245 20.626H24.6578C24.5031 20.626 24.3547 20.6874 24.2453 20.7968C24.1359 20.9062 24.0745 21.0546 24.0745 21.2093C24.0745 21.364 24.1359 21.5124 24.2453 21.6218C24.3547 21.7312 24.5031 21.7926 24.6578 21.7926H25.8245C25.9792 21.7926 26.1275 21.7312 26.2369 21.6218C26.3463 21.5124 26.4078 21.364 26.4078 21.2093C26.4078 21.0546 26.3463 20.9062 26.2369 20.7968C26.1275 20.6874 25.9792 20.626 25.8245 20.626Z" fill="#262626"/>
<path d="M22.3245 22.96H21.1578C21.0031 22.96 20.8547 23.0214 20.7453 23.1308C20.6359 23.2402 20.5745 23.3886 20.5745 23.5433C20.5745 23.698 20.6359 23.8464 20.7453 23.9558C20.8547 24.0652 21.0031 24.1266 21.1578 24.1266H22.3245C22.4792 24.1266 22.6275 24.0652 22.7369 23.9558C22.8463 23.8464 22.9078 23.698 22.9078 23.5433C22.9078 23.3886 22.8463 23.2402 22.7369 23.1308C22.6275 23.0214 22.4792 22.96 22.3245 22.96Z" fill="#262626"/>
<path d="M18.8245 22.96H17.6578C17.5031 22.96 17.3547 23.0214 17.2453 23.1308C17.1359 23.2402 17.0745 23.3886 17.0745 23.5433C17.0745 23.698 17.1359 23.8464 17.2453 23.9558C17.3547 24.0652 17.5031 24.1266 17.6578 24.1266H18.8245C18.9792 24.1266 19.1275 24.0652 19.2369 23.9558C19.3463 23.8464 19.4078 23.698 19.4078 23.5433C19.4078 23.3886 19.3463 23.2402 19.2369 23.1308C19.1275 23.0214 18.9792 22.96 18.8245 22.96Z" fill="#262626"/>
<path d="M25.8245 22.96H24.6578C24.5031 22.96 24.3547 23.0214 24.2453 23.1308C24.1359 23.2402 24.0745 23.3886 24.0745 23.5433C24.0745 23.698 24.1359 23.8464 24.2453 23.9558C24.3547 24.0652 24.5031 24.1266 24.6578 24.1266H25.8245C25.9792 24.1266 26.1275 24.0652 26.2369 23.9558C26.3463 23.8464 26.4078 23.698 26.4078 23.5433C26.4078 23.3886 26.3463 23.2402 26.2369 23.1308C26.1275 23.0214 25.9792 22.96 25.8245 22.96Z" fill="#262626"/>
<path d="M22.3245 25.293H21.1578C21.0031 25.293 20.8547 25.3544 20.7453 25.4638C20.6359 25.5732 20.5745 25.7216 20.5745 25.8763C20.5745 26.031 20.6359 26.1794 20.7453 26.2888C20.8547 26.3982 21.0031 26.4596 21.1578 26.4596H22.3245C22.4792 26.4596 22.6275 26.3982 22.7369 26.2888C22.8463 26.1794 22.9078 26.031 22.9078 25.8763C22.9078 25.7216 22.8463 25.5732 22.7369 25.4638C22.6275 25.3544 22.4792 25.293 22.3245 25.293Z" fill="#262626"/>
<path d="M18.8245 25.293H17.6578C17.5031 25.293 17.3547 25.3544 17.2453 25.4638C17.1359 25.5732 17.0745 25.7216 17.0745 25.8763C17.0745 26.031 17.1359 26.1794 17.2453 26.2888C17.3547 26.3982 17.5031 26.4596 17.6578 26.4596H18.8245C18.9792 26.4596 19.1275 26.3982 19.2369 26.2888C19.3463 26.1794 19.4078 26.031 19.4078 25.8763C19.4078 25.7216 19.3463 25.5732 19.2369 25.4638C19.1275 25.3544 18.9792 25.293 18.8245 25.293Z" fill="#262626"/>
<path d="M25.8245 25.293H24.6578C24.5031 25.293 24.3547 25.3544 24.2453 25.4638C24.1359 25.5732 24.0745 25.7216 24.0745 25.8763C24.0745 26.031 24.1359 26.1794 24.2453 26.2888C24.3547 26.3982 24.5031 26.4596 24.6578 26.4596H25.8245C25.9792 26.4596 26.1275 26.3982 26.2369 26.2888C26.3463 26.1794 26.4078 26.031 26.4078 25.8763C26.4078 25.7216 26.3463 25.5732 26.2369 25.4638C26.1275 25.3544 25.9792 25.293 25.8245 25.293Z" fill="#262626"/>
<path d="M12.9905 11.876H4.82381C4.6691 11.876 4.52073 11.9374 4.41133 12.0468C4.30194 12.1562 4.24048 12.3046 4.24048 12.4593C4.24048 12.614 4.30194 12.7624 4.41133 12.8718C4.52073 12.9812 4.6691 13.0426 4.82381 13.0426H12.9905C13.1452 13.0426 13.2936 12.9812 13.403 12.8718C13.5124 12.7624 13.5738 12.614 13.5738 12.4593C13.5738 12.3046 13.5124 12.1562 13.403 12.0468C13.2936 11.9374 13.1452 11.876 12.9905 11.876Z" fill="#262626"/>
<path d="M12.9905 17.71H4.82381C4.6691 17.71 4.52073 17.7714 4.41133 17.8808C4.30194 17.9902 4.24048 18.1386 4.24048 18.2933C4.24048 18.448 4.30194 18.5964 4.41133 18.7058C4.52073 18.8152 4.6691 18.8766 4.82381 18.8766H12.9905C13.1452 18.8766 13.2936 18.8152 13.403 18.7058C13.5124 18.5964 13.5738 18.448 13.5738 18.2933C13.5738 18.1386 13.5124 17.9902 13.403 17.8808C13.2936 17.7714 13.1452 17.71 12.9905 17.71Z" fill="#262626"/>
<path d="M4.82381 7.20964H16.4905C16.6452 7.20964 16.7936 7.14818 16.903 7.03878C17.0124 6.92938 17.0738 6.78101 17.0738 6.6263C17.0738 6.47159 17.0124 6.32322 16.903 6.21382C16.7936 6.10443 16.6452 6.04297 16.4905 6.04297H4.82381C4.6691 6.04297 4.52073 6.10443 4.41133 6.21382C4.30194 6.32322 4.24048 6.47159 4.24048 6.6263C4.24048 6.78101 4.30194 6.92938 4.41133 7.03878C4.52073 7.14818 4.6691 7.20964 4.82381 7.20964Z" fill="#262626"/>
<path d="M4.82381 10.1266H16.4905C16.6452 10.1266 16.7936 10.0652 16.903 9.95577C17.0124 9.84638 17.0738 9.698 17.0738 9.54329C17.0738 9.38858 17.0124 9.24021 16.903 9.13082C16.7936 9.02142 16.6452 8.95996 16.4905 8.95996H4.82381C4.6691 8.95996 4.52073 9.02142 4.41133 9.13082C4.30194 9.24021 4.24048 9.38858 4.24048 9.54329C4.24048 9.698 4.30194 9.84638 4.41133 9.95577C4.52073 10.0652 4.6691 10.1266 4.82381 10.1266Z" fill="#262626"/>
<path d="M12.9905 14.793H4.82381C4.6691 14.793 4.52073 14.8544 4.41133 14.9638C4.30194 15.0732 4.24048 15.2216 4.24048 15.3763C4.24048 15.531 4.30194 15.6794 4.41133 15.7888C4.52073 15.8982 4.6691 15.9596 4.82381 15.9596H12.9905C13.1452 15.9596 13.2936 15.8982 13.403 15.7888C13.5124 15.6794 13.5738 15.531 13.5738 15.3763C13.5738 15.2216 13.5124 15.0732 13.403 14.9638C13.2936 14.8544 13.1452 14.793 12.9905 14.793Z" fill="#262626"/>
<path d="M12.9905 20.626H4.82381C4.6691 20.626 4.52073 20.6874 4.41133 20.7968C4.30194 20.9062 4.24048 21.0546 4.24048 21.2093C4.24048 21.364 4.30194 21.5124 4.41133 21.6218C4.52073 21.7312 4.6691 21.7926 4.82381 21.7926H12.9905C13.1452 21.7926 13.2936 21.7312 13.403 21.6218C13.5124 21.5124 13.5738 21.364 13.5738 21.2093C13.5738 21.0546 13.5124 20.9062 13.403 20.7968C13.2936 20.6874 13.1452 20.626 12.9905 20.626Z" fill="#262626"/>
</svg>
