<svg width="27" height="22" viewBox="0 0 27 22" fill="none" xmlns="http://www.w3.org/2000/svg">
<path d="M24.6772 15.668H23.8022V12.418C23.8022 12.2025 23.71 11.9958 23.5459 11.8434C23.3818 11.6911 23.1593 11.6055 22.9272 11.6055H22.0522C21.8201 11.6055 21.5976 11.6911 21.4335 11.8434C21.2694 11.9958 21.1772 12.2025 21.1772 12.418V15.668H20.7397V9.98047C20.7397 9.76498 20.6475 9.55832 20.4834 9.40594C20.3193 9.25357 20.0968 9.16797 19.8647 9.16797H18.9897C18.7576 9.16797 18.5351 9.25357 18.371 9.40594C18.2069 9.55832 18.1147 9.76498 18.1147 9.98047V15.668H17.6772V11.1992C17.6772 10.9837 17.585 10.7771 17.4209 10.6247C17.2568 10.4723 17.0343 10.3867 16.8022 10.3867H15.9272C15.6951 10.3867 15.4726 10.4723 15.3085 10.6247C15.1444 10.7771 15.0522 10.9837 15.0522 11.1992V15.668C14.9362 15.6679 14.825 15.625 14.743 15.5489C14.661 15.4727 14.6148 15.3694 14.6147 15.2617V8.76172C14.6147 8.65398 14.5686 8.55064 14.4866 8.47446C14.4045 8.39827 14.2932 8.35547 14.1772 8.35547C14.0612 8.35547 13.9499 8.39827 13.8678 8.47446C13.7858 8.55064 13.7397 8.65398 13.7397 8.76172V15.2617C13.7401 15.5848 13.8785 15.8946 14.1245 16.1231C14.3706 16.3516 14.7042 16.4801 15.0522 16.4805H24.6772C24.7932 16.4805 24.9045 16.4377 24.9866 16.3615C25.0686 16.2853 25.1147 16.182 25.1147 16.0742C25.1147 15.9665 25.0686 15.8631 24.9866 15.787C24.9045 15.7108 24.7932 15.668 24.6772 15.668ZM15.9272 15.668L15.9266 11.1992H16.8022V15.668H15.9272ZM18.9897 15.668L18.9891 9.98047H19.8647V15.668H18.9897ZM22.0522 15.668L22.0516 12.418H22.9272V15.668H22.0522ZM19.8647 3.48047C19.8647 3.42712 19.876 3.37428 19.898 3.32499C19.92 3.27569 19.9522 3.2309 19.9928 3.19318C20.0334 3.15545 20.0817 3.12553 20.1348 3.10511C20.1878 3.0847 20.2447 3.07421 20.3022 3.07422H24.2397C24.3557 3.07422 24.467 3.11702 24.5491 3.19321C24.6311 3.26939 24.6772 3.37272 24.6772 3.48047C24.6772 3.58821 24.6311 3.69154 24.5491 3.76773C24.467 3.84392 24.3557 3.88672 24.2397 3.88672H20.3022C20.2447 3.88673 20.1878 3.87623 20.1348 3.85582C20.0817 3.83541 20.0334 3.80549 19.9928 3.76776C19.9522 3.73004 19.92 3.68525 19.898 3.63595C19.876 3.58666 19.8647 3.53382 19.8647 3.48047ZM18.5522 3.48047C18.5522 3.40012 18.5779 3.32158 18.6259 3.25477C18.674 3.18796 18.7423 3.13589 18.8223 3.10514C18.9022 3.07439 18.9902 3.06635 19.0751 3.08202C19.1599 3.0977 19.2379 3.13639 19.2991 3.19321C19.3603 3.25002 19.4019 3.32241 19.4188 3.40121C19.4357 3.48002 19.427 3.5617 19.3939 3.63593C19.3608 3.71017 19.3047 3.77361 19.2328 3.81825C19.1608 3.86289 19.0762 3.88672 18.9897 3.88672C18.8737 3.88672 18.7624 3.84392 18.6803 3.76773C18.5983 3.69154 18.5522 3.58821 18.5522 3.48047ZM19.8647 5.10547C19.8647 5.05212 19.876 4.99928 19.898 4.94999C19.92 4.90069 19.9522 4.8559 19.9928 4.81818C20.0334 4.78045 20.0817 4.75053 20.1348 4.73011C20.1878 4.7097 20.2447 4.69921 20.3022 4.69922H24.2397C24.3557 4.69922 24.467 4.74202 24.5491 4.81821C24.6311 4.89439 24.6772 4.99773 24.6772 5.10547C24.6772 5.21321 24.6311 5.31655 24.5491 5.39273C24.467 5.46892 24.3557 5.51172 24.2397 5.51172H20.3022C20.2447 5.51173 20.1878 5.50123 20.1348 5.48082C20.0817 5.46041 20.0334 5.43049 19.9928 5.39276C19.9522 5.35504 19.92 5.31025 19.898 5.26095C19.876 5.21166 19.8647 5.15882 19.8647 5.10547ZM19.8647 6.73047C19.8647 6.67712 19.876 6.62428 19.898 6.57499C19.92 6.52569 19.9522 6.4809 19.9928 6.44318C20.0334 6.40545 20.0817 6.37553 20.1348 6.35512C20.1878 6.3347 20.2447 6.32421 20.3022 6.32422H24.2397C24.3557 6.32422 24.467 6.36702 24.5491 6.44321C24.6311 6.51939 24.6772 6.62273 24.6772 6.73047C24.6772 6.83821 24.6311 6.94155 24.5491 7.01773C24.467 7.09392 24.3557 7.13672 24.2397 7.13672H20.3022C20.2447 7.13673 20.1878 7.12623 20.1348 7.10582C20.0817 7.08541 20.0334 7.05549 19.9928 7.01776C19.9522 6.98004 19.92 6.93525 19.898 6.88595C19.876 6.83666 19.8647 6.78382 19.8647 6.73047ZM18.5522 5.10547C18.5522 5.02512 18.5779 4.94658 18.6259 4.87977C18.674 4.81296 18.7423 4.76089 18.8223 4.73014C18.9022 4.69939 18.9902 4.69135 19.0751 4.70703C19.1599 4.7227 19.2379 4.76139 19.2991 4.81821C19.3603 4.87502 19.4019 4.94741 19.4188 5.02621C19.4357 5.10502 19.427 5.1867 19.3939 5.26093C19.3608 5.33517 19.3047 5.39861 19.2328 5.44325C19.1608 5.48789 19.0762 5.51172 18.9897 5.51172C18.8737 5.51172 18.7624 5.46892 18.6803 5.39273C18.5983 5.31655 18.5522 5.21321 18.5522 5.10547ZM18.5522 6.73047C18.5522 6.65012 18.5779 6.57158 18.6259 6.50477C18.674 6.43796 18.7423 6.38589 18.8223 6.35514C18.9022 6.3244 18.9902 6.31635 19.0751 6.33203C19.1599 6.3477 19.2379 6.38639 19.2991 6.44321C19.3603 6.50002 19.4019 6.57241 19.4188 6.65121C19.4357 6.73002 19.427 6.8117 19.3939 6.88593C19.3608 6.96017 19.3047 7.02361 19.2328 7.06825C19.1608 7.11289 19.0762 7.13672 18.9897 7.13672C18.8737 7.13672 18.7624 7.09392 18.6803 7.01773C18.5983 6.94155 18.5522 6.83821 18.5522 6.73047ZM25.5522 0.636719H3.6772C3.32922 0.637071 2.99561 0.765588 2.74955 0.994072C2.50349 1.22256 2.36508 1.53234 2.3647 1.85547V7.15725C2.00072 7.20459 1.66742 7.37249 1.42623 7.63001C1.18504 7.88752 1.05221 8.21731 1.05221 8.55859C1.05221 8.89988 1.18504 9.22966 1.42623 9.48718C1.66742 9.7447 2.00072 9.9126 2.3647 9.95994V11.8658C1.76997 12.396 1.30659 13.04 1.00671 13.7531C0.706828 14.4661 0.577631 15.2313 0.628083 15.9954C0.678536 16.7595 0.907429 17.5042 1.29888 18.178C1.69033 18.8517 2.23497 19.4383 2.89499 19.897C3.55502 20.3557 4.31462 20.6756 5.12111 20.8344C5.92759 20.9932 6.76163 20.9872 7.56535 20.8168C8.36908 20.6463 9.12324 20.3155 9.77551 19.8473C10.4278 19.3791 10.9625 18.7848 11.3426 18.1055H25.5522C25.9002 18.1051 26.2338 17.9766 26.4799 17.7481C26.7259 17.5196 26.8643 17.2098 26.8647 16.8867V1.85547C26.8643 1.53234 26.7259 1.22256 26.4799 0.994072C26.2338 0.765588 25.9002 0.637071 25.5522 0.636719ZM1.9272 8.55859C1.9272 8.43807 1.96569 8.32026 2.0378 8.22004C2.10991 8.11983 2.2124 8.04173 2.33232 7.99561C2.45223 7.94948 2.58418 7.93742 2.71148 7.96093C2.83878 7.98444 2.95572 8.04248 3.04749 8.1277C3.13927 8.21292 3.20177 8.3215 3.2271 8.43971C3.25242 8.55792 3.23942 8.68044 3.18975 8.79179C3.14008 8.90314 3.05597 8.99831 2.94805 9.06527C2.84013 9.13223 2.71325 9.16797 2.58345 9.16797C2.40946 9.16779 2.24266 9.10353 2.11963 8.98929C1.9966 8.87505 1.92739 8.72016 1.9272 8.55859ZM5.8647 11.2198V15.4251L1.87572 17.4197C1.57799 16.7719 1.44947 16.068 1.50068 15.3653C1.55188 14.6627 1.78134 13.9813 2.17032 13.3767C2.55931 12.7721 3.09678 12.2615 3.73885 11.8867C4.38091 11.5118 5.10936 11.2833 5.8647 11.2198ZM6.7397 11.2198C7.85915 11.316 8.9071 11.7728 9.70205 12.511C10.497 13.2491 10.9889 14.2222 11.0925 15.2617H6.7397V11.2198ZM6.3022 20.1367C5.50779 20.1363 4.72585 19.9532 4.02622 19.6038C3.32658 19.2544 2.73103 18.7495 2.29274 18.1343L6.41284 16.0742H11.0925C10.9823 17.1837 10.4302 18.2151 9.54421 18.9665C8.65821 19.7179 7.50211 20.1352 6.3022 20.1367ZM25.9897 16.8867C25.9896 16.9944 25.9435 17.0977 25.8614 17.1739C25.7794 17.25 25.6682 17.2929 25.5522 17.293H11.7114C12.0744 16.2581 12.0836 15.1443 11.7378 14.1044C11.3921 13.0645 10.7083 12.1493 9.78022 11.4846C8.85217 10.8198 7.72534 10.438 6.55433 10.3915C5.38332 10.345 4.2255 10.6361 3.2397 11.2248V9.83785C3.50077 9.72311 3.72151 9.54207 3.87636 9.31568C4.03121 9.08928 4.11385 8.82679 4.1147 8.55859C4.11341 8.34558 4.05997 8.13562 3.95841 7.94461L6.17224 6.11725C6.37724 6.23178 6.60825 6.30019 6.8468 6.31701C7.08536 6.33382 7.32484 6.29858 7.5461 6.2141L9.47405 7.62757C9.38094 7.84438 9.34677 8.07915 9.37457 8.31113C9.40237 8.54311 9.49129 8.76516 9.63345 8.95766C9.77562 9.15015 9.96667 9.30716 10.1897 9.41482C10.4127 9.52247 10.6609 9.57745 10.9123 9.57489C11.1636 9.57234 11.4104 9.51233 11.6309 9.40017C11.8513 9.28801 12.0386 9.12715 12.1762 8.93181C12.3138 8.73648 12.3975 8.51267 12.4198 8.28018C12.4421 8.04769 12.4024 7.81367 12.3042 7.59881L14.8332 5.65883C15.1344 5.85282 15.5006 5.93972 15.865 5.90364C16.2295 5.86757 16.5677 5.71093 16.8181 5.46235C17.0684 5.21378 17.214 4.88986 17.2283 4.54981C17.2427 4.20975 17.1248 3.87626 16.8961 3.61028C16.6675 3.34429 16.3434 3.16358 15.9832 3.10117C15.6229 3.03875 15.2505 3.0988 14.9339 3.27034C14.6174 3.44188 14.3779 3.71346 14.2592 4.03544C14.1405 4.35742 14.1506 4.7083 14.2875 5.02397L11.7479 6.972C11.4911 6.81308 11.1885 6.7299 10.8799 6.73336C10.5713 6.73683 10.271 6.82677 10.0184 6.99142L8.23678 5.68532C8.38529 5.47813 8.47261 5.23836 8.49 4.98999C8.50738 4.74163 8.45423 4.49338 8.33586 4.27007C8.21749 4.04677 8.03804 3.85624 7.81548 3.71756C7.59291 3.57887 7.33503 3.49688 7.06763 3.47979C6.80022 3.4627 6.53267 3.51112 6.29175 3.62019C6.05082 3.72926 5.84496 3.89516 5.69476 4.10131C5.54456 4.30745 5.45529 4.5466 5.43588 4.79483C5.41646 5.04307 5.46759 5.29169 5.58414 5.51582L3.36868 7.34443C3.32684 7.32097 3.28403 7.29906 3.2397 7.27934V1.85547C3.23982 1.74776 3.28595 1.64449 3.36797 1.56833C3.45 1.49216 3.56121 1.44933 3.6772 1.44922H25.5522C25.6682 1.44933 25.7794 1.49216 25.8614 1.56833C25.9435 1.64449 25.9896 1.74776 25.9897 1.85547V16.8867ZM7.4225 5.33324C7.33072 5.41846 7.21379 5.4765 7.08649 5.50001C6.95919 5.52352 6.82724 5.51145 6.70732 5.46533C6.58741 5.41921 6.48492 5.3411 6.41281 5.24089C6.3407 5.14068 6.30221 5.02287 6.30221 4.90234C6.30221 4.78182 6.3407 4.66401 6.41281 4.56379C6.48492 4.46358 6.58741 4.38548 6.70732 4.33936C6.82724 4.29323 6.95919 4.28117 7.08649 4.30468C7.21379 4.32819 7.33072 4.38622 7.4225 4.47145C7.54539 4.58582 7.6144 4.74078 7.6144 4.90234C7.6144 5.06391 7.54539 5.21887 7.4225 5.33324ZM11.36 8.58324C11.2682 8.66846 11.1513 8.7265 11.024 8.75001C10.8967 8.77352 10.7647 8.76145 10.6448 8.71533C10.5249 8.66921 10.4224 8.5911 10.3503 8.49089C10.2782 8.39068 10.2397 8.27287 10.2397 8.15234C10.2397 8.03182 10.2782 7.91401 10.3503 7.81379C10.4224 7.71358 10.5249 7.63548 10.6448 7.58936C10.7647 7.54323 10.8967 7.53117 11.024 7.55468C11.1513 7.57819 11.2682 7.63623 11.36 7.72145C11.4829 7.83582 11.5519 7.99078 11.5519 8.15234C11.5519 8.31391 11.4829 8.46887 11.36 8.58324ZM15.2444 4.0652C15.3362 3.97998 15.4531 3.92194 15.5804 3.89843C15.7077 3.87492 15.8397 3.88698 15.9596 3.93311C16.0795 3.97923 16.182 4.05733 16.2541 4.15754C16.3262 4.25776 16.3647 4.37557 16.3647 4.49609C16.3647 4.61662 16.3262 4.73443 16.2541 4.83464C16.182 4.93485 16.0795 5.01296 15.9596 5.05908C15.8397 5.1052 15.7077 5.11727 15.5804 5.09376C15.4531 5.07025 15.3362 5.01221 15.2444 4.92699C15.1215 4.81263 15.0525 4.65766 15.0525 4.49609C15.0525 4.33453 15.1215 4.17956 15.2444 4.0652Z" fill="white" stroke="white" stroke-width="0.2"/>
</svg>
