<svg width="29" height="30" viewBox="0 0 29 30" fill="none" xmlns="http://www.w3.org/2000/svg">
<path d="M23.3346 3.0113H22.2902V1.9243C22.2902 1.30324 21.8007 0.799805 21.1969 0.799805C20.5931 0.799805 20.1036 1.30324 20.1036 1.9243V3.0113H9.37726V1.9243C9.37726 1.30324 8.8878 0.799805 8.28399 0.799805C7.68018 0.799805 7.19073 1.30324 7.19073 1.9243V3.0113H6.14639C3.16555 3.0113 0.740479 5.50567 0.740479 8.57161V24.0266C0.740479 27.0926 3.16555 29.587 6.14639 29.587H23.3346C26.3154 29.587 28.7405 27.0926 28.7405 24.0266V8.57161C28.7405 5.50567 26.3154 3.0113 23.3346 3.0113ZM6.14639 5.2603H7.19073V7.45307C7.19073 8.07413 7.68018 8.57757 8.28399 8.57757C8.8878 8.57757 9.37726 8.07413 9.37726 7.45307V5.2603H20.1037V7.45307C20.1037 8.07413 20.5932 8.57757 21.197 8.57757C21.8008 8.57757 22.2902 8.07413 22.2902 7.45307V5.2603H23.3346C25.1098 5.2603 26.554 6.74576 26.554 8.57161V9.64585H2.927V8.57161C2.927 6.74576 4.37121 5.2603 6.14639 5.2603ZM23.3346 27.338H6.14639C4.37121 27.338 2.927 25.8525 2.927 24.0266V11.8948H26.554V24.0266C26.554 25.8525 25.1098 27.338 23.3346 27.338ZM10.4523 16.3179C10.4523 16.939 9.96286 17.4424 9.35905 17.4424H7.20899C6.60518 17.4424 6.11573 16.939 6.11573 16.3179C6.11573 15.6968 6.60518 15.1934 7.20899 15.1934H9.35905C9.96281 15.1934 10.4523 15.6968 10.4523 16.3179ZM23.3653 16.3179C23.3653 16.939 22.8758 17.4424 22.272 17.4424H20.122C19.5181 17.4424 19.0287 16.939 19.0287 16.3179C19.0287 15.6968 19.5181 15.1934 20.122 15.1934H22.272C22.8758 15.1934 23.3653 15.6968 23.3653 16.3179ZM16.9026 16.3179C16.9026 16.939 16.4131 17.4424 15.8093 17.4424H13.6592C13.0554 17.4424 12.566 16.939 12.566 16.3179C12.566 15.6968 13.0554 15.1934 13.6592 15.1934H15.8093C16.4131 15.1934 16.9026 15.6968 16.9026 16.3179ZM10.4523 22.9524C10.4523 23.5735 9.96286 24.0769 9.35905 24.0769H7.20899C6.60518 24.0769 6.11573 23.5735 6.11573 22.9524C6.11573 22.3314 6.60518 21.8279 7.20899 21.8279H9.35905C9.96281 21.8279 10.4523 22.3314 10.4523 22.9524ZM23.3653 22.9524C23.3653 23.5735 22.8758 24.0769 22.272 24.0769H20.122C19.5181 24.0769 19.0287 23.5735 19.0287 22.9524C19.0287 22.3314 19.5181 21.8279 20.122 21.8279H22.272C22.8758 21.8279 23.3653 22.3314 23.3653 22.9524ZM16.9026 22.9524C16.9026 23.5735 16.4131 24.0769 15.8093 24.0769H13.6592C13.0554 24.0769 12.566 23.5735 12.566 22.9524C12.566 22.3314 13.0554 21.8279 13.6592 21.8279H15.8093C16.4131 21.8279 16.9026 22.3314 16.9026 22.9524Z" fill="#262626"/>
</svg>
