<svg width="29" height="29" viewBox="0 0 29 29" fill="none" xmlns="http://www.w3.org/2000/svg">
<g clip-path="url(#clip0_1511_4059)">
<path d="M11.3251 1.73242H5.10114C4.33526 1.73322 3.601 2.03788 3.05953 2.57953C2.51807 3.12118 2.21366 3.85555 2.21313 4.62142V10.8434C2.21366 11.6093 2.51807 12.3437 3.05953 12.8853C3.601 13.427 4.33526 13.7316 5.10114 13.7324H11.3251C12.091 13.7316 12.8253 13.427 13.3667 12.8853C13.9082 12.3437 14.2126 11.6093 14.2131 10.8434V4.62142C14.2126 3.85555 13.9082 3.12118 13.3667 2.57953C12.8253 2.03788 12.091 1.73322 11.3251 1.73242ZM12.2131 10.8434C12.2131 11.079 12.1196 11.305 11.9531 11.4717C11.7866 11.6384 11.5607 11.7322 11.3251 11.7324H5.10114C4.86553 11.7322 4.63967 11.6384 4.47316 11.4717C4.30666 11.305 4.21313 11.079 4.21314 10.8434V4.62142C4.21313 4.38582 4.30666 4.15985 4.47316 3.99316C4.63967 3.82647 4.86553 3.73269 5.10114 3.73242H11.3251C11.5607 3.73269 11.7866 3.82647 11.9531 3.99316C12.1196 4.15985 12.2131 4.38582 12.2131 4.62142V10.8434Z" fill="#262626"/>
<path d="M25.3251 1.73242H19.1011C18.3353 1.73322 17.601 2.03788 17.0595 2.57953C16.5181 3.12118 16.2137 3.85555 16.2131 4.62142V10.8434C16.2137 11.6093 16.5181 12.3437 17.0595 12.8853C17.601 13.427 18.3353 13.7316 19.1011 13.7324H25.3251C26.091 13.7316 26.8253 13.427 27.3667 12.8853C27.9082 12.3437 28.2126 11.6093 28.2131 10.8434V4.62142C28.2126 3.85555 27.9082 3.12118 27.3667 2.57953C26.8253 2.03788 26.091 1.73322 25.3251 1.73242ZM26.2131 10.8434C26.2131 11.079 26.1196 11.305 25.9531 11.4717C25.7866 11.6384 25.5607 11.7322 25.3251 11.7324H19.1011C18.8655 11.7322 18.6397 11.6384 18.4732 11.4717C18.3067 11.305 18.2131 11.079 18.2131 10.8434V4.62142C18.2131 4.38582 18.3067 4.15985 18.4732 3.99316C18.6397 3.82647 18.8655 3.73269 19.1011 3.73242H25.3251C25.5607 3.73269 25.7866 3.82647 25.9531 3.99316C26.1196 4.15985 26.2131 4.38582 26.2131 4.62142V10.8434Z" fill="#262626"/>
<path d="M25.3251 15.7324H19.1011C18.3353 15.7332 17.601 16.0379 17.0595 16.5795C16.5181 17.1212 16.2137 17.8555 16.2131 18.6214V24.8434C16.2137 25.6093 16.5181 26.3437 17.0595 26.8853C17.601 27.427 18.3353 27.7316 19.1011 27.7324H25.3251C26.091 27.7316 26.8253 27.427 27.3667 26.8853C27.9082 26.3437 28.2126 25.6093 28.2131 24.8434V18.6214C28.2126 17.8555 27.9082 17.1212 27.3667 16.5795C26.8253 16.0379 26.091 15.7332 25.3251 15.7324ZM26.2131 24.8434C26.2131 25.079 26.1196 25.305 25.9531 25.4717C25.7866 25.6384 25.5607 25.7322 25.3251 25.7324H19.1011C18.8655 25.7322 18.6397 25.6384 18.4732 25.4717C18.3067 25.305 18.2131 25.079 18.2131 24.8434V18.6214C18.2131 18.3858 18.3067 18.1598 18.4732 17.9932C18.6397 17.8265 18.8655 17.7327 19.1011 17.7324H25.3251C25.5607 17.7327 25.7866 17.8265 25.9531 17.9932C26.1196 18.1598 26.2131 18.3858 26.2131 18.6214V24.8434Z" fill="#262626"/>
<path d="M11.3251 15.7324H5.10114C4.33526 15.7332 3.601 16.0379 3.05953 16.5795C2.51807 17.1212 2.21366 17.8555 2.21313 18.6214V24.8434C2.21366 25.6093 2.51807 26.3437 3.05953 26.8853C3.601 27.427 4.33526 27.7316 5.10114 27.7324H11.3251C12.091 27.7316 12.8253 27.427 13.3667 26.8853C13.9082 26.3437 14.2126 25.6093 14.2131 24.8434V18.6214C14.2126 17.8555 13.9082 17.1212 13.3667 16.5795C12.8253 16.0379 12.091 15.7332 11.3251 15.7324ZM12.2131 24.8434C12.2131 25.079 12.1196 25.305 11.9531 25.4717C11.7866 25.6384 11.5607 25.7322 11.3251 25.7324H5.10114C4.86553 25.7322 4.63967 25.6384 4.47316 25.4717C4.30666 25.305 4.21313 25.079 4.21314 24.8434V18.6214C4.21313 18.3858 4.30666 18.1598 4.47316 17.9932C4.63967 17.8265 4.86553 17.7327 5.10114 17.7324H11.3251C11.5607 17.7327 11.7866 17.8265 11.9531 17.9932C12.1196 18.1598 12.2131 18.3858 12.2131 18.6214V24.8434Z" fill="#262626"/>
</g>
<defs>
<clipPath id="clip0_1511_4059">
<rect width="28" height="28" fill="#262626" transform="translate(0.740479 0.792969)"/>
</clipPath>
</defs>
</svg>