<svg width="35" height="36" viewBox="0 0 35 36" fill="none" xmlns="http://www.w3.org/2000/svg">
<rect y="0.796875" width="35" height="35" rx="10" fill="#16A636"/>
<path d="M21.91 20.8269C21.91 21.6369 21.61 22.3269 21.01 22.8969C20.42 23.4569 19.56 23.7969 18.43 23.9169V25.5969H17.2V23.9319C16.46 23.8819 15.76 23.7469 15.1 23.5269C14.44 23.3069 13.915 23.0269 13.525 22.6869L14.2 21.1719C14.57 21.4719 15.02 21.7269 15.55 21.9369C16.08 22.1369 16.63 22.2619 17.2 22.3119V19.3119C16.49 19.1419 15.895 18.9569 15.415 18.7569C14.945 18.5469 14.55 18.2469 14.23 17.8569C13.91 17.4569 13.75 16.9319 13.75 16.2819C13.75 15.4719 14.045 14.7819 14.635 14.2119C15.225 13.6419 16.08 13.3019 17.2 13.1919V11.4969H18.43V13.1619C18.99 13.1919 19.535 13.2869 20.065 13.4469C20.605 13.6069 21.075 13.8169 21.475 14.0769L20.86 15.5919C20.1 15.1519 19.29 14.8819 18.43 14.7819V17.8119C19.15 17.9819 19.745 18.1669 20.215 18.3669C20.695 18.5669 21.095 18.8669 21.415 19.2669C21.745 19.6569 21.91 20.1769 21.91 20.8269ZM15.685 16.1919C15.685 16.5219 15.815 16.7869 16.075 16.9869C16.335 17.1869 16.71 17.3569 17.2 17.4969V14.8269C16.69 14.9069 16.31 15.0669 16.06 15.3069C15.81 15.5469 15.685 15.8419 15.685 16.1919ZM18.43 22.2819C18.96 22.2019 19.35 22.0469 19.6 21.8169C19.86 21.5869 19.99 21.3019 19.99 20.9619C19.99 20.6219 19.855 20.3519 19.585 20.1519C19.315 19.9419 18.93 19.7669 18.43 19.6269V22.2819Z" fill="white"/>
</svg>
