<svg width="65" height="71" viewBox="0 0 65 71" fill="none" xmlns="http://www.w3.org/2000/svg">
<path d="M48.3518 30.4196V17.1723C48.3518 16.7931 48.1767 16.4428 47.9289 16.1656L33.0767 0.569534C32.7996 0.277939 32.4054 0.117188 32.0118 0.117188H8.46419C4.11697 0.117188 0.644531 3.66226 0.644531 8.01001V52.537C0.644531 56.8848 4.11697 60.3716 8.46419 60.3716H27.0515C30.5672 66.2073 36.9577 70.1171 44.2375 70.1171C55.2962 70.1171 64.3271 61.13 64.3271 50.0568C64.342 40.384 57.3971 32.3016 48.3518 30.4196ZM33.4709 5.23826L43.4353 15.7277H36.9721C35.0463 15.7277 33.4709 14.1378 33.4709 12.212V5.23826ZM8.46419 57.4535C5.73623 57.4535 3.56262 55.265 3.56262 52.537V8.01001C3.56262 5.2671 5.73623 3.03527 8.46419 3.03527H30.5528V12.212C30.5528 15.757 33.4271 18.6458 36.9721 18.6458H45.4337V30.0399C44.9963 30.0254 44.646 29.9816 44.2668 29.9816C39.1751 29.9816 34.492 31.9368 30.9613 35.0007H12.4328C11.6301 35.0007 10.9737 35.6571 10.9737 36.4592C10.9737 37.2619 11.6301 37.9183 12.4328 37.9183H28.2478C27.2117 39.3773 26.3508 40.8364 25.68 42.4412H12.4328C11.6301 42.4412 10.9737 43.0975 10.9737 43.9002C10.9737 44.7024 11.6301 45.3593 12.4328 45.3593H24.7316C24.3668 46.8183 24.1772 48.4376 24.1772 50.0568C24.1772 52.6828 24.6878 55.2799 25.6069 57.4685H8.46419V57.4535ZM44.2524 67.214C34.7985 67.214 27.1097 59.5251 27.1097 50.0713C27.1097 40.6174 34.7836 32.9286 44.2524 32.9286C53.7207 32.9286 61.3946 40.6174 61.3946 50.0713C61.3946 59.5251 53.7063 67.214 44.2524 67.214Z" fill="white"/>
<path d="M12.4317 30.6056H27.2107C28.0133 30.6056 28.6697 29.9487 28.6697 29.1465C28.6697 28.3439 28.0133 27.6875 27.2107 27.6875H12.4317C11.629 27.6875 10.9727 28.3439 10.9727 29.1465C10.9727 29.9487 11.629 30.6056 12.4317 30.6056Z" fill="white"/>
<path d="M51.7226 49.7633L45.7267 56.2264V40.295C45.7267 39.4923 45.0698 38.8359 44.2677 38.8359C43.465 38.8359 42.8086 39.4923 42.8086 40.295V56.2264L36.7684 49.7633C36.2141 49.1801 35.2806 49.1363 34.6968 49.6906C34.1131 50.245 34.0693 51.1641 34.6242 51.7478L43.159 60.9245C43.4361 61.2161 43.8153 61.3913 44.2239 61.3913C44.6324 61.3913 45.0116 61.2161 45.2888 60.9245L53.8385 51.7478C54.3928 51.1641 54.3635 50.2306 53.7798 49.6906C53.1816 49.1363 52.2774 49.1801 51.7226 49.7633Z" fill="white"/>
</svg>
