<svg width="53" height="27" viewBox="0 0 53 27" fill="none" xmlns="http://www.w3.org/2000/svg">
<path d="M25.8144 22.3649H19.7658C19.2353 22.3649 18.7266 22.1541 18.3515 21.779C17.9764 21.4039 17.7656 20.8952 17.7656 20.3647V7.52752C17.7656 6.99704 17.9764 6.48829 18.3515 6.11318C18.7266 5.73808 19.2353 5.52734 19.7658 5.52734H29.0266C29.5571 5.52734 30.0659 5.73808 30.441 6.11318C30.8161 6.48829 31.0268 6.99704 31.0268 7.52752V12.328C31.0327 12.3906 31.0255 12.4538 31.0056 12.5135C30.9856 12.5732 30.9535 12.6281 30.9111 12.6747C30.8687 12.7212 30.8171 12.7584 30.7595 12.7839C30.702 12.8093 30.6397 12.8225 30.5768 12.8225C30.5138 12.8225 30.4516 12.8093 30.394 12.7839C30.3364 12.7584 30.2848 12.7212 30.2425 12.6747C30.2001 12.6281 30.1679 12.5732 30.148 12.5135C30.1281 12.4538 30.1208 12.3906 30.1267 12.328V7.52752C30.1267 7.38482 30.0986 7.24352 30.0438 7.11173C29.9891 6.97994 29.9089 6.86025 29.8078 6.75953C29.7067 6.65881 29.5867 6.57904 29.4547 6.5248C29.3227 6.47055 29.1813 6.4429 29.0386 6.44343H19.7658C19.6224 6.44184 19.4802 6.46871 19.3473 6.52248C19.2143 6.57625 19.0934 6.65585 18.9915 6.75668C18.8895 6.8575 18.8086 6.97755 18.7534 7.10987C18.6981 7.24218 18.6697 7.38414 18.6697 7.52752V20.3767C18.6697 20.5201 18.6981 20.662 18.7534 20.7943C18.8086 20.9267 18.8895 21.0467 18.9915 21.1475C19.0934 21.2484 19.2143 21.328 19.3473 21.3817C19.4802 21.4355 19.6224 21.4624 19.7658 21.4608H25.8144C25.9342 21.4608 26.0492 21.5084 26.134 21.5932C26.2188 21.678 26.2664 21.7929 26.2664 21.9128C26.2664 22.0327 26.2188 22.1477 26.134 22.2325C26.0492 22.3172 25.9342 22.3649 25.8144 22.3649Z" fill="#16A636"/>
<path d="M28.187 10.3591H20.5863C20.5236 10.365 20.4604 10.3578 20.4007 10.3379C20.341 10.3179 20.2861 10.2858 20.2396 10.2434C20.193 10.201 20.1558 10.1494 20.1304 10.0918C20.1049 10.0343 20.0918 9.97202 20.0918 9.90907C20.0918 9.84613 20.1049 9.78388 20.1304 9.72631C20.1558 9.66874 20.193 9.61712 20.2396 9.57475C20.2861 9.53238 20.341 9.50021 20.4007 9.48028C20.4604 9.46035 20.5236 9.45312 20.5863 9.45903H28.187C28.299 9.46961 28.4031 9.52159 28.4788 9.60482C28.5546 9.68805 28.5966 9.79654 28.5966 9.90907C28.5966 10.0216 28.5546 10.1301 28.4788 10.2133C28.4031 10.2966 28.299 10.3485 28.187 10.3591Z" fill="#16A636"/>
<path d="M24.7789 13.8728H20.5985C20.4786 13.8728 20.3637 13.8252 20.2789 13.7404C20.1941 13.6557 20.1465 13.5407 20.1465 13.4208C20.1465 13.3009 20.1941 13.1859 20.2789 13.1011C20.3637 13.0164 20.4786 12.9688 20.5985 12.9688H24.7789C24.8988 12.9688 25.0138 13.0164 25.0985 13.1011C25.1833 13.1859 25.2309 13.3009 25.2309 13.4208C25.2309 13.5407 25.1833 13.6557 25.0985 13.7404C25.0138 13.8252 24.8988 13.8728 24.7789 13.8728Z" fill="#16A636"/>
<path d="M34.0464 22.3636H27.6458C27.522 22.3626 27.4035 22.3129 27.316 22.2254C27.2284 22.1378 27.1788 22.0194 27.1777 21.8956V20.3274C27.1777 20.2033 27.227 20.0842 27.3148 19.9965C27.4026 19.9087 27.5216 19.8594 27.6458 19.8594C27.7699 19.8594 27.889 19.9087 27.9767 19.9965C28.0645 20.0842 28.1138 20.2033 28.1138 20.3274V21.4235H33.5783V20.3834C33.5783 20.2593 33.6276 20.1402 33.7154 20.0525C33.8032 19.9647 33.9222 19.9154 34.0464 19.9154C34.1705 19.9154 34.2895 19.9647 34.3773 20.0525C34.4651 20.1402 34.5144 20.2593 34.5144 20.3834V21.8916C34.5144 22.0161 34.4652 22.1355 34.3776 22.2239C34.2899 22.3123 34.1709 22.3625 34.0464 22.3636Z" fill="#16A636"/>
<path d="M30.8104 20.0809C30.6892 20.0813 30.5728 20.0339 30.4864 19.9489L28.5662 18.1288C28.476 18.0434 28.4235 17.9256 28.4201 17.8015C28.4167 17.6773 28.4628 17.5569 28.5482 17.4667C28.6336 17.3765 28.7514 17.324 28.8755 17.3206C28.9997 17.3172 29.1201 17.3633 29.2103 17.4487L30.8104 18.9688L32.4906 17.3687C32.5342 17.3216 32.587 17.284 32.6457 17.2582C32.7045 17.2324 32.7679 17.219 32.8321 17.2188C32.8962 17.2185 32.9598 17.2314 33.0187 17.2568C33.0776 17.2821 33.1308 17.3193 33.1747 17.366C33.2187 17.4127 33.2526 17.468 33.2743 17.5284C33.296 17.5887 33.3051 17.6529 33.301 17.717C33.2968 17.781 33.2796 17.8435 33.2503 17.9006C33.221 17.9576 33.1802 18.0081 33.1306 18.0488L31.1304 19.9449C31.045 20.0293 30.9305 20.078 30.8104 20.0809Z" fill="#16A636"/>
<path d="M30.8548 19.8631C30.7306 19.8631 30.6116 19.8138 30.5238 19.726C30.436 19.6382 30.3867 19.5192 30.3867 19.395V14.3626C30.3867 14.2384 30.436 14.1194 30.5238 14.0316C30.6116 13.9438 30.7306 13.8945 30.8548 13.8945C30.9789 13.8945 31.0979 13.9438 31.1857 14.0316C31.2735 14.1194 31.3228 14.2384 31.3228 14.3626V19.395C31.3228 19.5192 31.2735 19.6382 31.1857 19.726C31.0979 19.8138 30.9789 19.8631 30.8548 19.8631Z" fill="#16A636"/>
</svg>
