<svg width="65" height="66" viewBox="0 0 65 66" fill="none" xmlns="http://www.w3.org/2000/svg">
<path d="M9.14062 59.2031H26.4062C26.6756 59.2031 26.9339 59.0961 27.1244 58.9057C27.3149 58.7152 27.4219 58.4569 27.4219 58.1875C27.4219 57.9181 27.3149 57.6598 27.1244 57.4693C26.9339 57.2789 26.6756 57.1719 26.4062 57.1719H9.14062C7.79432 57.1703 6.50361 56.6347 5.55163 55.6827C4.59965 54.7308 4.06411 53.4401 4.0625 52.0938V20.6094H53.8281C54.0975 20.6094 54.3558 20.5024 54.5463 20.3119C54.7367 20.1214 54.8438 19.8631 54.8438 19.5938C54.8438 19.3244 54.7367 19.0661 54.5463 18.8756C54.3558 18.6851 54.0975 18.5781 53.8281 18.5781H3.04688C2.77751 18.5781 2.51919 18.6851 2.32872 18.8756C2.13825 19.0661 2.03125 19.3244 2.03125 19.5938V52.0938C2.03367 53.9785 2.78347 55.7854 4.11621 57.1182C5.44895 58.4509 7.25584 59.2007 9.14062 59.2031Z" fill="black"/>
<path d="M3.04688 16.5469C3.31624 16.5469 3.57456 16.4399 3.76503 16.2494C3.9555 16.0589 4.0625 15.8006 4.0625 15.5312V12.4844C4.06411 11.1381 4.59965 9.84736 5.55163 8.89538C6.50361 7.9434 7.79432 7.40786 9.14062 7.40625H11.1719V9.62438C10.4942 9.86396 9.92311 10.3354 9.55944 10.9553C9.19577 11.5753 9.06296 12.3038 9.1845 13.0122C9.30605 13.7206 9.6741 14.3632 10.2236 14.8265C10.7732 15.2898 11.4688 15.5439 12.1875 15.5439C12.9062 15.5439 13.6018 15.2898 14.1514 14.8265C14.7009 14.3632 15.069 13.7206 15.1905 13.0122C15.312 12.3038 15.1792 11.5753 14.8156 10.9553C14.4519 10.3354 13.8808 9.86396 13.2031 9.62438V7.40625H20.3125V9.62438C19.6349 9.86396 19.0637 10.3354 18.7001 10.9553C18.3364 11.5753 18.2036 12.3038 18.3251 13.0122C18.4467 13.7206 18.8147 14.3632 19.3643 14.8265C19.9138 15.2898 20.6094 15.5439 21.3281 15.5439C22.0469 15.5439 22.7425 15.2898 23.292 14.8265C23.8415 14.3632 24.2096 13.7206 24.3311 13.0122C24.4527 12.3038 24.3199 11.5753 23.9562 10.9553C23.5925 10.3354 23.0214 9.86396 22.3438 9.62438V7.40625H29.4531V9.62438C28.7755 9.86396 28.2044 10.3354 27.8407 10.9553C27.477 11.5753 27.3442 12.3038 27.4658 13.0122C27.5873 13.7206 27.9554 14.3632 28.5049 14.8265C29.0544 15.2898 29.75 15.5439 30.4688 15.5439C31.1875 15.5439 31.8831 15.2898 32.4326 14.8265C32.9821 14.3632 33.3502 13.7206 33.4717 13.0122C33.5933 12.3038 33.4605 11.5753 33.0968 10.9553C32.7331 10.3354 32.162 9.86396 31.4844 9.62438V7.40625H38.5938V9.62438C37.9161 9.86396 37.345 10.3354 36.9813 10.9553C36.6176 11.5753 36.4848 12.3038 36.6064 13.0122C36.7279 13.7206 37.096 14.3632 37.6455 14.8265C38.195 15.2898 38.8906 15.5439 39.6094 15.5439C40.3281 15.5439 41.0237 15.2898 41.5732 14.8265C42.1228 14.3632 42.4908 13.7206 42.6124 13.0122C42.7339 12.3038 42.6011 11.5753 42.2374 10.9553C41.8738 10.3354 41.3026 9.86396 40.625 9.62438V7.40625H47.7344V9.62438C47.0567 9.86396 46.4856 10.3354 46.1219 10.9553C45.7583 11.5753 45.6255 12.3038 45.747 13.0122C45.8685 13.7206 46.2366 14.3632 46.7861 14.8265C47.3357 15.2898 48.0313 15.5439 48.75 15.5439C49.4687 15.5439 50.1643 15.2898 50.7139 14.8265C51.2634 14.3632 51.6315 13.7206 51.753 13.0122C51.8745 12.3038 51.7417 11.5753 51.3781 10.9553C51.0144 10.3354 50.4433 9.86396 49.7656 9.62438V7.40625H51.7969C53.1432 7.40786 54.4339 7.9434 55.3859 8.89538C56.3379 9.84736 56.8734 11.1381 56.875 12.4844V22.6406H7.10938C6.84001 22.6406 6.58169 22.7476 6.39122 22.9381C6.20075 23.1286 6.09375 23.3869 6.09375 23.6562C6.09375 23.9256 6.20075 24.1839 6.39122 24.3744C6.58169 24.5649 6.84001 24.6719 7.10938 24.6719H56.875V46C56.875 46.2694 56.982 46.5277 57.1725 46.7182C57.3629 46.9086 57.6213 47.0156 57.8906 47.0156C58.16 47.0156 58.4183 46.9086 58.6088 46.7182C58.7992 46.5277 58.9062 46.2694 58.9062 46V12.4844C58.9041 10.5995 58.1544 8.79246 56.8216 7.45966C55.4888 6.12686 53.6817 5.37715 51.7969 5.375H49.7656V2.32812C49.7656 2.05876 49.6586 1.80044 49.4682 1.60997C49.2777 1.4195 49.0194 1.3125 48.75 1.3125C48.4806 1.3125 48.2223 1.4195 48.0318 1.60997C47.8414 1.80044 47.7344 2.05876 47.7344 2.32812V5.375H40.625V2.32812C40.625 2.05876 40.518 1.80044 40.3275 1.60997C40.1371 1.4195 39.8787 1.3125 39.6094 1.3125C39.34 1.3125 39.0817 1.4195 38.8912 1.60997C38.7008 1.80044 38.5938 2.05876 38.5938 2.32812V5.375H31.4844V2.32812C31.4844 2.05876 31.3774 1.80044 31.1869 1.60997C30.9964 1.4195 30.7381 1.3125 30.4688 1.3125C30.1994 1.3125 29.9411 1.4195 29.7506 1.60997C29.5601 1.80044 29.4531 2.05876 29.4531 2.32812V5.375H22.3438V2.32812C22.3438 2.05876 22.2367 1.80044 22.0463 1.60997C21.8558 1.4195 21.5975 1.3125 21.3281 1.3125C21.0588 1.3125 20.8004 1.4195 20.61 1.60997C20.4195 1.80044 20.3125 2.05876 20.3125 2.32812V5.375H13.2031V2.32812C13.2031 2.05876 13.0961 1.80044 12.9057 1.60997C12.7152 1.4195 12.4569 1.3125 12.1875 1.3125C11.9181 1.3125 11.6598 1.4195 11.4693 1.60997C11.2789 1.80044 11.1719 2.05876 11.1719 2.32812V5.375H9.14062C7.25576 5.37715 5.44871 6.12686 4.11591 7.45966C2.78311 8.79246 2.0334 10.5995 2.03125 12.4844V15.5312C2.03125 15.8006 2.13825 16.0589 2.32872 16.2494C2.51919 16.4399 2.77751 16.5469 3.04688 16.5469ZM12.1875 13.5C11.9866 13.5 11.7903 13.4404 11.6232 13.3288C11.4562 13.2172 11.3261 13.0586 11.2492 12.873C11.1723 12.6875 11.1522 12.4832 11.1914 12.2862C11.2306 12.0892 11.3273 11.9083 11.4693 11.7662C11.6114 11.6242 11.7923 11.5275 11.9894 11.4883C12.1864 11.4491 12.3906 11.4692 12.5762 11.5461C12.7617 11.6229 12.9204 11.7531 13.032 11.9201C13.1436 12.0871 13.2031 12.2835 13.2031 12.4844C13.2031 12.7537 13.0961 13.0121 12.9057 13.2025C12.7152 13.393 12.4569 13.5 12.1875 13.5ZM21.3281 13.5C21.1273 13.5 20.9309 13.4404 20.7639 13.3288C20.5969 13.2172 20.4667 13.0586 20.3898 12.873C20.3129 12.6875 20.2928 12.4832 20.332 12.2862C20.3712 12.0892 20.4679 11.9083 20.61 11.7662C20.752 11.6242 20.933 11.5275 21.13 11.4883C21.327 11.4491 21.5312 11.4692 21.7168 11.5461C21.9024 11.6229 22.061 11.7531 22.1726 11.9201C22.2842 12.0871 22.3438 12.2835 22.3438 12.4844C22.3438 12.7537 22.2367 13.0121 22.0463 13.2025C21.8558 13.393 21.5975 13.5 21.3281 13.5ZM30.4688 13.5C30.2679 13.5 30.0715 13.4404 29.9045 13.3288C29.7375 13.2172 29.6073 13.0586 29.5304 12.873C29.4536 12.6875 29.4335 12.4832 29.4726 12.2862C29.5118 12.0892 29.6086 11.9083 29.7506 11.7662C29.8926 11.6242 30.0736 11.5275 30.2706 11.4883C30.4676 11.4491 30.6718 11.4692 30.8574 11.5461C31.043 11.6229 31.2016 11.7531 31.3132 11.9201C31.4248 12.0871 31.4844 12.2835 31.4844 12.4844C31.4844 12.7537 31.3774 13.0121 31.1869 13.2025C30.9964 13.393 30.7381 13.5 30.4688 13.5ZM39.6094 13.5C39.4085 13.5 39.2121 13.4404 39.0451 13.3288C38.8781 13.2172 38.7479 13.0586 38.6711 12.873C38.5942 12.6875 38.5741 12.4832 38.6133 12.2862C38.6525 12.0892 38.7492 11.9083 38.8912 11.7662C39.0333 11.6242 39.2142 11.5275 39.4112 11.4883C39.6082 11.4491 39.8125 11.4692 39.998 11.5461C40.1836 11.6229 40.3422 11.7531 40.4538 11.9201C40.5654 12.0871 40.625 12.2835 40.625 12.4844C40.625 12.7537 40.518 13.0121 40.3275 13.2025C40.1371 13.393 39.8787 13.5 39.6094 13.5ZM48.75 13.5C48.5491 13.5 48.3528 13.4404 48.1857 13.3288C48.0187 13.2172 47.8886 13.0586 47.8117 12.873C47.7348 12.6875 47.7147 12.4832 47.7539 12.2862C47.7931 12.0892 47.8898 11.9083 48.0318 11.7662C48.1739 11.6242 48.3548 11.5275 48.5519 11.4883C48.7489 11.4491 48.9531 11.4692 49.1387 11.5461C49.3242 11.6229 49.4829 11.7531 49.5945 11.9201C49.7061 12.0871 49.7656 12.2835 49.7656 12.4844C49.7656 12.7537 49.6586 13.0121 49.4682 13.2025C49.2777 13.393 49.0194 13.5 48.75 13.5Z" fill="black"/>
<path d="M26.4062 28.7344C26.4062 28.1957 26.1922 27.679 25.8113 27.2981C25.4304 26.9171 24.9137 26.7031 24.375 26.7031H20.3125C19.7738 26.7031 19.2571 26.9171 18.8762 27.2981C18.4953 27.679 18.2812 28.1957 18.2812 28.7344V32.7969C18.2812 33.3356 18.4953 33.8523 18.8762 34.2332C19.2571 34.6141 19.7738 34.8281 20.3125 34.8281H24.375C24.9137 34.8281 25.4304 34.6141 25.8113 34.2332C26.1922 33.8523 26.4062 33.3356 26.4062 32.7969V28.7344ZM20.3125 32.7969V28.7344H24.375V32.7969H20.3125Z" fill="black"/>
<path d="M35.5469 34.8281C36.0856 34.8281 36.6023 34.6141 36.9832 34.2332C37.3641 33.8523 37.5781 33.3356 37.5781 32.7969V28.7344C37.5781 28.1957 37.3641 27.679 36.9832 27.2981C36.6023 26.9171 36.0856 26.7031 35.5469 26.7031H31.4844C30.9457 26.7031 30.429 26.9171 30.0481 27.2981C29.6671 27.679 29.4531 28.1957 29.4531 28.7344V32.7969C29.4531 33.3356 29.6671 33.8523 30.0481 34.2332C30.429 34.6141 30.9457 34.8281 31.4844 34.8281H35.5469ZM31.4844 28.7344H35.5469V32.7969H31.4844V28.7344Z" fill="black"/>
<path d="M15.2344 28.7344C15.2344 28.1957 15.0204 27.679 14.6394 27.2981C14.2585 26.9171 13.7418 26.7031 13.2031 26.7031H9.14062C8.6019 26.7031 8.08525 26.9171 7.70431 27.2981C7.32338 27.679 7.10938 28.1957 7.10938 28.7344V32.7969C7.10938 33.3356 7.32338 33.8523 7.70431 34.2332C8.08525 34.6141 8.6019 34.8281 9.14062 34.8281H13.2031C13.7418 34.8281 14.2585 34.6141 14.6394 34.2332C15.0204 33.8523 15.2344 33.3356 15.2344 32.7969V28.7344ZM9.14062 32.7969V28.7344H13.2031V32.7969H9.14062Z" fill="black"/>
<path d="M26.4062 38.8906C26.4062 38.3519 26.1922 37.8352 25.8113 37.4543C25.4304 37.0734 24.9137 36.8594 24.375 36.8594H20.3125C19.7738 36.8594 19.2571 37.0734 18.8762 37.4543C18.4953 37.8352 18.2812 38.3519 18.2812 38.8906V42.9531C18.2812 43.4918 18.4953 44.0085 18.8762 44.3894C19.2571 44.7704 19.7738 44.9844 20.3125 44.9844H24.375C24.9137 44.9844 25.4304 44.7704 25.8113 44.3894C26.1922 44.0085 26.4062 43.4918 26.4062 42.9531V38.8906ZM20.3125 42.9531V38.8906H24.375V42.9531H20.3125Z" fill="black"/>
<path d="M15.2344 38.8906C15.2344 38.3519 15.0204 37.8352 14.6394 37.4543C14.2585 37.0734 13.7418 36.8594 13.2031 36.8594H9.14062C8.6019 36.8594 8.08525 37.0734 7.70431 37.4543C7.32338 37.8352 7.10938 38.3519 7.10938 38.8906V42.9531C7.10938 43.4918 7.32338 44.0085 7.70431 44.3894C8.08525 44.7704 8.6019 44.9844 9.14062 44.9844H13.2031C13.7418 44.9844 14.2585 44.7704 14.6394 44.3894C15.0204 44.0085 15.2344 43.4918 15.2344 42.9531V38.8906ZM9.14062 42.9531V38.8906H13.2031V42.9531H9.14062Z" fill="black"/>
<path d="M24.375 47.0156H20.3125C19.7738 47.0156 19.2571 47.2296 18.8762 47.6106C18.4953 47.9915 18.2812 48.5082 18.2812 49.0469V53.1094C18.2812 53.6481 18.4953 54.1648 18.8762 54.5457C19.2571 54.9266 19.7738 55.1406 20.3125 55.1406H24.375C24.9137 55.1406 25.4304 54.9266 25.8113 54.5457C26.1922 54.1648 26.4062 53.6481 26.4062 53.1094V49.0469C26.4062 48.5082 26.1922 47.9915 25.8113 47.6106C25.4304 47.2296 24.9137 47.0156 24.375 47.0156ZM20.3125 53.1094V49.0469H24.375V53.1094H20.3125Z" fill="black"/>
<path d="M13.2031 47.0156H9.14062C8.6019 47.0156 8.08525 47.2296 7.70431 47.6106C7.32338 47.9915 7.10938 48.5082 7.10938 49.0469V53.1094C7.10938 53.6481 7.32338 54.1648 7.70431 54.5457C8.08525 54.9266 8.6019 55.1406 9.14062 55.1406H13.2031C13.7418 55.1406 14.2585 54.9266 14.6394 54.5457C15.0204 54.1648 15.2344 53.6481 15.2344 53.1094V49.0469C15.2344 48.5082 15.0204 47.9915 14.6394 47.6106C14.2585 47.2296 13.7418 47.0156 13.2031 47.0156ZM9.14062 53.1094V49.0469H13.2031V53.1094H9.14062Z" fill="black"/>
<path d="M28.8286 62.7057C29.0994 63.1883 29.4951 63.5892 29.9742 63.8662C30.4533 64.1432 30.9981 64.2861 31.5515 64.2799H59.8549C60.4083 64.2861 60.9532 64.1432 61.4323 63.8662C61.9114 63.5892 62.3071 63.1883 62.5778 62.7057C62.8428 62.2438 62.9783 61.7189 62.9701 61.1865C62.9618 60.654 62.8102 60.1337 62.5311 59.6801L48.3794 36.2751C48.097 35.8194 47.703 35.4435 47.2347 35.1827C46.7664 34.922 46.2392 34.7852 45.7032 34.7852C45.1672 34.7852 44.6401 34.922 44.1718 35.1827C43.7034 35.4435 43.3094 35.8194 43.0271 36.2751L28.8743 59.6811C28.5957 60.1347 28.4444 60.6549 28.4364 61.1871C28.4283 61.7194 28.5638 62.2439 28.8286 62.7057ZM30.6131 60.7313L44.7648 37.3262C44.8661 37.1694 45.005 37.0405 45.169 36.9512C45.3329 36.862 45.5166 36.8152 45.7032 36.8152C45.8899 36.8152 46.0736 36.862 46.2375 36.9512C46.4014 37.0405 46.5404 37.1694 46.6417 37.3262L60.7934 60.7303C60.8803 60.8894 60.9236 61.0688 60.9187 61.2501C60.9138 61.4313 60.8611 61.6081 60.7657 61.7624C60.6704 61.9166 60.5359 62.0429 60.3759 62.1283C60.2159 62.2137 60.0362 62.2552 59.8549 62.2486H31.5515C31.3708 62.2542 31.1917 62.212 31.0325 62.1264C30.8732 62.0408 30.7392 61.9148 30.6441 61.761C30.549 61.6072 30.496 61.4311 30.4906 61.2503C30.4851 61.0695 30.5274 60.8905 30.6131 60.7313Z" fill="black"/>
<path d="M45.7031 55.1406C45.9725 55.1406 46.2308 55.0336 46.4213 54.8432C46.6117 54.6527 46.7188 54.3944 46.7188 54.125V46C46.7188 45.7306 46.6117 45.4723 46.4213 45.2818C46.2308 45.0914 45.9725 44.9844 45.7031 44.9844C45.4338 44.9844 45.1754 45.0914 44.985 45.2818C44.7945 45.4723 44.6875 45.7306 44.6875 46V54.125C44.6875 54.3944 44.7945 54.6527 44.985 54.8432C45.1754 55.0336 45.4338 55.1406 45.7031 55.1406Z" fill="black"/>
<path d="M45.7031 59.2031C46.264 59.2031 46.7188 58.7484 46.7188 58.1875C46.7188 57.6266 46.264 57.1719 45.7031 57.1719C45.1422 57.1719 44.6875 57.6266 44.6875 58.1875C44.6875 58.7484 45.1422 59.2031 45.7031 59.2031Z" fill="black"/>
</svg>
