<svg width="65" height="66" viewBox="0 0 65 66" fill="none" xmlns="http://www.w3.org/2000/svg">
<g clip-path="url(#clip0_587_8044)">
<path d="M42.0115 5.42273C41.7923 5.26899 41.5185 5.21444 41.2577 5.27296C40.9964 5.33148 40.7722 5.49711 40.6393 5.7292C40.6328 5.7406 40.6249 5.75102 40.618 5.76143C40.3125 6.19783 39.709 6.30396 39.2726 5.99897C38.8416 5.69746 38.248 5.8016 37.9465 6.23255L36.5589 8.2147C36.2574 8.64565 36.3621 9.23925 36.7925 9.54076C36.9591 9.6573 37.1496 9.71334 37.338 9.71334C37.638 9.71334 37.9336 9.57151 38.1186 9.30719L39.0534 7.9717C39.9311 8.21619 40.8848 8.02774 41.6038 7.46141L43.0083 8.4448C43.4392 8.74632 44.0323 8.64168 44.3343 8.21123C44.6358 7.78028 44.5312 7.18668 44.1003 6.88516L42.0115 5.42273Z" fill="black"/>
<path d="M52.5411 17.4154L51.6063 18.7504C51.3048 19.1814 51.4094 19.775 51.8399 20.0765C52.0065 20.193 52.1969 20.2486 52.3854 20.2486C52.6854 20.2486 52.981 20.1072 53.1659 19.8424L54.554 17.8608C54.8555 17.4298 54.7509 16.8362 54.3204 16.5347C53.884 16.2292 53.7774 15.6257 54.0834 15.1888C54.0908 15.1784 54.0977 15.168 54.1062 15.1585C54.2788 14.9537 54.3576 14.6864 54.3229 14.4211C54.2887 14.1558 54.1444 13.9168 53.9252 13.7635L51.8364 12.3011C51.4055 11.9996 50.8118 12.1042 50.5103 12.5352C50.2083 12.9656 50.3135 13.5597 50.7439 13.8612L52.1483 14.8441C51.8617 15.714 52.011 16.674 52.5411 17.4154Z" fill="black"/>
<path d="M47.4884 38.8066C47.9407 38.8066 48.3607 38.9876 48.6711 39.3169C49.0322 39.6988 49.6347 39.7161 50.017 39.3551C50.3999 38.9941 50.4167 38.3916 50.0557 38.0092C49.3917 37.306 48.4559 36.9023 47.4884 36.9023C45.5414 36.9023 43.958 38.4863 43.958 40.4332C43.958 42.3797 45.5414 43.9636 47.4884 43.9636C48.4316 43.9636 49.3183 43.5966 49.9848 42.9296C50.3567 42.5577 50.3567 41.9547 49.9848 41.5832C49.6134 41.2113 49.0103 41.2113 48.6384 41.5832C48.3314 41.8902 47.9228 42.0593 47.4884 42.0593C46.5918 42.0593 45.8623 41.3298 45.8623 40.4332C45.8623 39.5361 46.5918 38.8066 47.4884 38.8066Z" fill="black"/>
<path d="M55.9659 33.7262V26.1001C55.9659 23.511 53.8593 21.4043 51.2702 21.4043H46.2173C46.5129 18.8514 45.6793 16.6059 43.9208 15.3746C42.4311 14.3317 40.501 14.1447 38.4856 14.8479C36.5808 15.5129 34.8089 16.9104 33.4977 18.783C32.917 19.6116 32.4548 20.4904 32.1196 21.4043H25.9207L39.2448 2.37578L57.7339 15.3215L54.9171 19.3448C54.6156 19.7758 54.7202 20.3694 55.1507 20.6709C55.5816 20.9724 56.1752 20.8678 56.4767 20.4368L59.5474 16.0515C60.0101 15.3924 59.8499 14.4795 59.1899 14.0163L39.9748 0.562233C39.6555 0.338081 39.2677 0.251793 38.8833 0.319237C38.499 0.387176 38.1643 0.599922 37.9396 0.919784L33.5325 7.21437V3.41867C33.5325 2.61282 32.8769 1.95723 32.071 1.95723H9.23336C8.4275 1.95723 7.77191 2.61282 7.77191 3.41867V8.63119C7.77191 9.15735 8.19839 9.58333 8.72406 9.58333C9.25022 9.58333 9.6762 9.15735 9.6762 8.63119V3.86202H12.435V21.4038H9.90085C9.82597 21.4038 9.75109 21.4058 9.6762 21.4093V12.4398C9.6762 11.9141 9.25022 11.4876 8.72406 11.4876C8.19839 11.4876 7.77191 11.9141 7.77191 12.4398V21.9151C6.24996 22.6927 5.20508 24.2767 5.20508 26.1001V54.7662C5.20508 57.3553 7.3117 59.462 9.90085 59.462H17.0102C17.5364 59.462 17.9624 59.036 17.9624 58.5098C17.9624 57.9842 17.5364 57.5577 17.0102 57.5577H9.90085C8.36155 57.5577 7.10937 56.3055 7.10937 54.7662V26.1001C7.10937 24.8802 7.89589 23.8407 8.98788 23.4619C9.01218 23.4549 9.03648 23.447 9.05979 23.4381C9.3256 23.3538 9.60826 23.3081 9.90135 23.3081H51.2702C52.8095 23.3081 54.0621 24.5608 54.0621 26.1001V33.5943H47.2454C43.4745 33.5943 40.4063 36.662 40.4063 40.4334C40.4063 44.2043 43.4745 47.272 47.2454 47.272H54.0621V54.7662C54.0621 56.3055 52.8095 57.5577 51.2702 57.5577H43.9947C43.4685 57.5577 43.0425 57.9842 43.0425 58.5098C43.0425 59.036 43.4685 59.462 43.9947 59.462H51.2702C53.8593 59.462 55.9664 57.3553 55.9664 54.7662V47.1401C58.1207 46.6288 59.7279 44.6888 59.7279 42.3808V38.486C59.7274 36.1775 58.1202 34.2375 55.9659 33.7262ZM35.0574 19.8759C37.229 16.7745 40.7152 15.4554 42.8288 16.9347C44.0462 17.7872 44.5823 19.4599 44.2972 21.4038H34.1776C34.4191 20.8782 34.7127 20.3669 35.0574 19.8759ZM31.6282 9.93394L23.5964 21.4043H18.9046V3.86152H31.6282V9.93394ZM14.3392 3.86152H17.0003V21.4038H14.3392V3.86152ZM57.8231 42.3804C57.8231 44.0278 56.4832 45.3677 54.8358 45.3677H47.2454C44.5243 45.3677 42.3106 43.154 42.3106 40.4329C42.3106 37.7123 44.5243 35.4986 47.2454 35.4986H54.8358C56.4832 35.4986 57.8231 36.8386 57.8231 38.486V42.3804Z" fill="black"/>
<path d="M30.5852 42.2891C24.2425 42.2891 19.082 47.4495 19.082 53.7927C19.082 60.1354 24.2425 65.2958 30.5852 65.2958C36.9283 65.2958 42.0888 60.1354 42.0888 53.7927C42.0888 47.4495 36.9283 42.2891 30.5852 42.2891ZM30.5852 63.3915C25.2923 63.3915 20.9863 59.0855 20.9863 53.7927C20.9863 48.4993 25.2923 44.1934 30.5852 44.1934C35.8785 44.1934 40.1845 48.4993 40.1845 53.7927C40.1845 59.0855 35.8785 63.3915 30.5852 63.3915Z" fill="black"/>
<path d="M31.3977 52.8423H29.7736C29.295 52.8423 28.9058 52.453 28.9058 51.9745C28.9058 51.4959 29.295 51.1066 29.7736 51.1066H32.8815C33.4071 51.1066 33.8336 50.6801 33.8336 50.1545C33.8336 49.6288 33.4071 49.2023 32.8815 49.2023H31.7126V48.3975C31.7126 47.8718 31.2861 47.4453 30.7605 47.4453C30.2348 47.4453 29.8083 47.8718 29.8083 48.3975V49.2023H29.7736C28.2452 49.2023 27.0015 50.4461 27.0015 51.9745C27.0015 53.5029 28.2452 54.7466 29.7736 54.7466H31.3977C31.8763 54.7466 32.2651 55.1354 32.2651 55.6139C32.2651 56.0925 31.8763 56.4818 31.3977 56.4818H28.2898C27.7637 56.4818 27.3377 56.9083 27.3377 57.4339C27.3377 57.9596 27.7637 58.3861 28.2898 58.3861H29.8083V59.1909C29.8083 59.7166 30.2348 60.1431 30.7605 60.1431C31.2866 60.1431 31.7126 59.7166 31.7126 59.1909V58.3682C33.0932 58.211 34.1698 57.0362 34.1698 55.6139C34.1693 54.0855 32.9261 52.8423 31.3977 52.8423Z" fill="black"/>
</g>
<defs>
<clipPath id="clip0_587_8044">
<rect width="65" height="65" fill="white" transform="translate(0 0.296875)"/>
</clipPath>
</defs>
</svg>
