<svg width="91" height="90" viewBox="0 0 91 90" fill="none" xmlns="http://www.w3.org/2000/svg">
<rect x="0.953125" width="90" height="90" rx="12.8571" fill="#FF6262"/>
<path fill-rule="evenodd" clip-rule="evenodd" d="M45.954 22.9016C33.7495 22.9016 23.8557 32.7954 23.8557 44.9999C23.8557 57.2044 33.7495 67.0981 45.954 67.0981C58.1585 67.0981 68.0522 57.2044 68.0522 44.9999C68.0522 42.4135 67.6087 39.935 66.7953 37.6336C66.4255 36.5875 66.9738 35.4398 68.0199 35.07C69.066 34.7003 70.2137 35.2486 70.5835 36.2947C71.5468 39.0201 72.07 41.951 72.07 44.9999C72.07 59.4234 60.3775 71.1159 45.954 71.1159C31.5305 71.1159 19.8379 59.4234 19.8379 44.9999C19.8379 30.5764 31.5305 18.8838 45.954 18.8838C48.2053 18.8838 50.393 19.1691 52.4815 19.7067C53.556 19.9832 54.2028 21.0785 53.9263 22.1529C53.6497 23.2274 52.5545 23.8743 51.48 23.5977C49.7159 23.1437 47.8647 22.9016 45.954 22.9016Z" fill="white"/>
<path d="M45.9528 28.9287C47.0623 28.9287 47.9618 29.8281 47.9618 30.9376V32.9466H51.9796C53.0891 32.9466 53.9886 33.846 53.9886 34.9555C53.9886 36.065 53.0891 36.9644 51.9796 36.9644H42.9395C42.1403 36.9644 41.3738 37.2819 40.8087 37.847C40.2435 38.4121 39.9261 39.1786 39.9261 39.9778C39.9261 40.777 40.2435 41.5435 40.8087 42.1086C41.3738 42.6737 42.1403 42.9912 42.9395 42.9912H48.9662C50.831 42.9912 52.6195 43.732 53.9381 45.0506C55.2567 46.3692 55.9975 48.1577 55.9975 50.0225C55.9975 51.8873 55.2567 53.6757 53.9381 54.9943C52.6195 56.3129 50.831 57.0537 48.9662 57.0537H47.9618V59.0626C47.9618 60.1721 47.0623 61.0716 45.9528 61.0716C44.8433 61.0716 43.9439 60.1721 43.9439 59.0626V57.0537H39.9261C38.8166 57.0537 37.9171 56.1543 37.9171 55.0448C37.9171 53.9353 38.8166 53.0359 39.9261 53.0359H48.9662C49.7654 53.0359 50.5319 52.7184 51.097 52.1533C51.6621 51.5881 51.9796 50.8217 51.9796 50.0225C51.9796 49.2233 51.6621 48.4568 51.097 47.8917C50.5319 47.3265 49.7654 47.0091 48.9662 47.0091H42.9395C41.0746 47.0091 39.2862 46.2683 37.9676 44.9497C36.649 43.631 35.9082 41.8426 35.9082 39.9778C35.9082 38.113 36.649 36.3246 37.9676 35.006C39.2862 33.6874 41.0746 32.9466 42.9395 32.9466H43.9439V30.9376C43.9439 29.8281 44.8433 28.9287 45.9528 28.9287Z" fill="white"/>
<path fill-rule="evenodd" clip-rule="evenodd" d="M60.0167 20.8929C58.9072 20.8929 58.0078 19.9934 58.0078 18.8839C58.0078 17.7744 58.9072 16.875 60.0167 16.875H70.0614C71.1709 16.875 72.0703 17.7744 72.0703 18.8839V28.9286C72.0703 30.0381 71.1709 30.9375 70.0614 30.9375C68.9519 30.9375 68.0525 30.0381 68.0525 28.9286V23.7339L61.4373 30.3491C60.6527 31.1336 59.3807 31.1336 58.5962 30.3491C57.8117 29.5646 57.8117 28.2926 58.5962 27.508L65.2114 20.8929H60.0167Z" fill="white"/>
</svg>
