<svg width="29" height="29" viewBox="0 0 29 29" fill="none" xmlns="http://www.w3.org/2000/svg">
<g clip-path="url(#clip0_1511_4133)">
<path d="M19.6624 18.0381C19.3604 18.0381 19.1155 18.2829 19.1155 18.585V22.3584C19.1155 23.8661 17.8888 25.0928 16.3811 25.0928H10.4766C10.1747 25.0928 9.92995 25.3374 9.92973 25.6393L9.92896 26.7266L8.62368 25.4213C8.53919 25.2274 8.34581 25.0928 8.12214 25.0928H4.5686C3.06087 25.0928 1.83423 23.8661 1.83423 22.3584V13.9365C1.83423 12.4288 3.06087 11.2021 4.5686 11.2021H10.092C10.394 11.2021 10.6389 10.9573 10.6389 10.6553C10.6389 10.3532 10.394 10.1084 10.092 10.1084H4.5686C2.45778 10.1084 0.740479 11.8257 0.740479 13.9365V22.3584C0.740479 24.4692 2.45778 26.1865 4.5686 26.1865H7.84209L10.0882 28.4326C10.1928 28.5372 10.3326 28.5928 10.475 28.5928C10.5453 28.5928 10.6164 28.5792 10.6839 28.5512C10.8883 28.4667 11.0216 28.2674 11.0217 28.0463L11.023 26.1865H16.3811C18.4919 26.1865 20.2092 24.4692 20.2092 22.3584V18.585C20.2092 18.2829 19.9643 18.0381 19.6624 18.0381Z" fill="#262626"/>
<path d="M20.7919 0.592773H19.4078C15.025 0.592773 11.4592 4.15851 11.4592 8.54138C11.4592 12.9243 15.025 16.4899 19.4078 16.4899H20.7919C21.476 16.4899 22.153 16.403 22.8093 16.2313L24.8539 18.2748C24.9585 18.3793 25.0983 18.4348 25.2406 18.4348C25.3111 18.4348 25.3822 18.4212 25.4498 18.3932C25.6541 18.3085 25.7874 18.1091 25.7874 17.888V14.724C26.653 14.0229 27.3721 13.1374 27.8767 12.1481C28.4499 11.0245 28.7405 9.81101 28.7405 8.54138C28.7405 4.15851 25.1747 0.592773 20.7919 0.592773ZM24.9114 14.0205C24.7743 14.1238 24.6936 14.2855 24.6936 14.4573V16.5683L23.3553 15.2307C23.2512 15.1267 23.1115 15.0706 22.9687 15.0706C22.9151 15.0706 22.861 15.0786 22.8081 15.0948C22.1572 15.2949 21.4789 15.3962 20.7919 15.3962H19.4078C15.628 15.3962 12.553 12.3212 12.553 8.54138C12.553 4.7616 15.6281 1.68652 19.4078 1.68652H20.7919C24.5717 1.68652 27.6467 4.7616 27.6467 8.54138C27.6467 10.7142 26.6498 12.7113 24.9114 14.0205Z" fill="#262626"/>
<path d="M22.5626 6.57719C22.4837 5.4323 21.5608 4.5094 20.4158 4.43048C19.7668 4.38591 19.1474 4.60483 18.6733 5.04741C18.2058 5.48387 17.9376 6.10086 17.9376 6.74021C17.9376 7.04225 18.1825 7.28709 18.4845 7.28709C18.7865 7.28709 19.0314 7.04225 19.0314 6.74021C19.0314 6.39792 19.1693 6.08068 19.4197 5.847C19.6698 5.61354 19.9967 5.49798 20.3407 5.52172C20.9438 5.56328 21.4299 6.0494 21.4715 6.65244C21.5135 7.26149 21.1139 7.79973 20.5214 7.93229C20.0413 8.03969 19.7061 8.45685 19.7061 8.94669V10.2606C19.7061 10.5626 19.951 10.8074 20.253 10.8074C20.555 10.8074 20.7999 10.5626 20.7998 10.2606V8.99038C21.9018 8.72416 22.6411 7.71584 22.5626 6.57719Z" fill="#262626"/>
<path d="M20.6396 12.0362C20.5379 11.9345 20.3968 11.876 20.2529 11.876C20.1091 11.876 19.968 11.9345 19.8663 12.0362C19.7646 12.1379 19.7061 12.279 19.7061 12.4229C19.7061 12.5672 19.7646 12.7083 19.8663 12.81C19.968 12.9118 20.1091 12.9697 20.2529 12.9697C20.3968 12.9697 20.5379 12.9118 20.6396 12.81C20.7413 12.7078 20.7998 12.5672 20.7998 12.4229C20.7998 12.279 20.7412 12.1379 20.6396 12.0362Z" fill="#262626"/>
<path d="M15.7795 17.5459H4.24048C3.93849 17.5459 3.6936 17.7907 3.6936 18.0928C3.6936 18.3948 3.93849 18.6396 4.24048 18.6396H15.7795C16.0816 18.6396 16.3264 18.3948 16.3264 18.0928C16.3264 17.7907 16.0815 17.5459 15.7795 17.5459Z" fill="#262626"/>
<path d="M16.1661 20.7686C16.0645 20.6669 15.9234 20.6084 15.7795 20.6084C15.6357 20.6084 15.4946 20.6669 15.3929 20.7686C15.2911 20.8704 15.2327 21.0114 15.2327 21.1553C15.2327 21.2991 15.2912 21.4402 15.3929 21.5419C15.4946 21.6436 15.6357 21.7021 15.7795 21.7021C15.9234 21.7021 16.0645 21.6436 16.1661 21.5419C16.2679 21.4402 16.3264 21.2996 16.3264 21.1553C16.3264 21.0114 16.2678 20.8704 16.1661 20.7686Z" fill="#262626"/>
<path d="M13.6285 20.6084H4.24048C3.93849 20.6084 3.6936 20.8532 3.6936 21.1553C3.6936 21.4573 3.93849 21.7021 4.24048 21.7021H13.6285C13.9306 21.7021 14.1754 21.4573 14.1754 21.1553C14.1754 20.8532 13.9305 20.6084 13.6285 20.6084Z" fill="#262626"/>
<path d="M12.2249 14.4834H4.24048C3.93849 14.4834 3.6936 14.7282 3.6936 15.0303C3.6936 15.3323 3.93849 15.5771 4.24048 15.5771H12.2249C12.5269 15.5771 12.7717 15.3323 12.7717 15.0303C12.7717 14.7282 12.5268 14.4834 12.2249 14.4834Z" fill="#262626"/>
</g>
<defs>
<clipPath id="clip0_1511_4133">
<rect width="28" height="28" fill="white" transform="translate(0.740479 0.592773)"/>
</clipPath>
</defs>
</svg>
