<svg width="91" height="90" viewBox="0 0 91 90" fill="none" xmlns="http://www.w3.org/2000/svg">
<rect x="0.537109" width="90" height="90" rx="12.1006" fill="#16A636"/>
<path fill-rule="evenodd" clip-rule="evenodd" d="M45.5364 24.2014C43.7381 24.2014 41.9958 24.4291 40.3355 24.8565C39.3242 25.1168 38.2935 24.508 38.0332 23.4967C37.7729 22.4855 38.3817 21.4547 39.3929 21.1944C41.3585 20.6885 43.4175 20.4199 45.5364 20.4199C59.1112 20.4199 70.1157 31.4245 70.1157 44.9993C70.1157 58.5741 59.1112 69.5786 45.5364 69.5786C31.9616 69.5786 20.957 58.5741 20.957 44.9993C20.957 42.1298 21.4495 39.3714 22.3561 36.8063C22.7041 35.8218 23.7843 35.3058 24.7689 35.6537C25.7534 36.0017 26.2694 37.0819 25.9214 38.0665C25.1559 40.2324 24.7385 42.5651 24.7385 44.9993C24.7385 56.4856 34.05 65.7972 45.5364 65.7972C57.0227 65.7972 66.3343 56.4856 66.3343 44.9993C66.3343 33.5129 57.0227 24.2014 45.5364 24.2014Z" fill="white"/>
<path fill-rule="evenodd" clip-rule="evenodd" d="M45.5376 29.874C46.5818 29.874 47.4283 30.7205 47.4283 31.7647V33.6555H51.2097C52.2539 33.6555 53.1005 34.502 53.1005 35.5462C53.1005 36.5904 52.2539 37.4369 51.2097 37.4369H42.7015C41.9493 37.4369 41.228 37.7357 40.6961 38.2676C40.1642 38.7994 39.8654 39.5208 39.8654 40.273C39.8654 41.0252 40.1642 41.7465 40.6961 42.2784C41.228 42.8103 41.9493 43.1091 42.7015 43.1091H48.3737C50.1287 43.1091 51.8119 43.8063 53.0529 45.0473C54.294 46.2883 54.9912 47.9715 54.9912 49.7266C54.9912 51.4816 54.294 53.1648 53.0529 54.4059C51.8119 55.6469 50.1287 56.3441 48.3737 56.3441H47.4283V58.2348C47.4283 59.279 46.5818 60.1255 45.5376 60.1255C44.4934 60.1255 43.6469 59.279 43.6469 58.2348V56.3441H39.8654C38.8212 56.3441 37.9747 55.4976 37.9747 54.4534C37.9747 53.4092 38.8212 52.5626 39.8654 52.5626H48.3737C49.1258 52.5626 49.8472 52.2638 50.3791 51.732C50.9109 51.2001 51.2097 50.4787 51.2097 49.7266C51.2097 48.9744 50.9109 48.253 50.3791 47.7212C49.8472 47.1893 49.1258 46.8905 48.3737 46.8905H42.7015C40.9464 46.8905 39.2632 46.1933 38.0222 44.9523C36.7812 43.7112 36.084 42.0281 36.084 40.273C36.084 38.5179 36.7812 36.8347 38.0222 35.5937C39.2632 34.3527 40.9464 33.6555 42.7015 33.6555H43.6469V31.7647C43.6469 30.7205 44.4934 29.874 45.5376 29.874Z" fill="white"/>
<path fill-rule="evenodd" clip-rule="evenodd" d="M22.8477 27.9832C21.8035 27.9832 20.957 28.8297 20.957 29.8739C20.957 30.9181 21.8035 31.7646 22.8477 31.7646H32.3013C33.3456 31.7646 34.1921 30.9181 34.1921 29.8739V20.4203C34.1921 19.3761 33.3456 18.5296 32.3013 18.5296C31.2571 18.5296 30.4106 19.3761 30.4106 20.4203V25.3093L24.1847 19.0834C23.4463 18.345 22.2492 18.345 21.5108 19.0834C20.7724 19.8218 20.7724 21.0189 21.5108 21.7573L27.7367 27.9832H22.8477Z" fill="white"/>
</svg>
