<svg width="21" height="21" viewBox="0 0 21 21" fill="none" xmlns="http://www.w3.org/2000/svg">
<path d="M14.6961 8.83333V7.16667C14.6961 4.86548 12.8306 3 10.5294 3C8.22823 3 6.36275 4.86548 6.36275 7.16667V8.83333M10.5294 12.5833V14.25M7.86275 18H13.1961C14.5962 18 15.2963 18 15.8311 17.7275C16.3015 17.4878 16.6839 17.1054 16.9236 16.635C17.1961 16.1002 17.1961 15.4001 17.1961 14V12.8333C17.1961 11.4332 17.1961 10.7331 16.9236 10.1984C16.6839 9.72795 16.3015 9.3455 15.8311 9.10582C15.2963 8.83333 14.5962 8.83333 13.1961 8.83333H7.86275C6.46262 8.83333 5.76255 8.83333 5.22777 9.10582C4.75737 9.3455 4.37492 9.72795 4.13523 10.1984C3.86275 10.7331 3.86275 11.4332 3.86275 12.8333V14C3.86275 15.4001 3.86275 16.1002 4.13523 16.635C4.37492 17.1054 4.75737 17.4878 5.22777 17.7275C5.76255 18 6.46262 18 7.86275 18Z" stroke="#939393" stroke-width="1.5" stroke-linecap="round" stroke-linejoin="round"/>
</svg>
