<svg width="29" height="26" viewBox="0 0 29 26" fill="none" xmlns="http://www.w3.org/2000/svg">
<path d="M28.2297 19.4099C27.9338 18.3047 26.7849 17.6331 25.614 17.8787L17.4535 19.6112C17.6141 19.1698 17.6144 18.686 17.4545 18.2443C17.2945 17.8027 16.9845 17.4313 16.5785 17.1951L11.8481 14.4634C11.6582 14.3449 11.4799 14.2089 11.3154 14.0571C10.8998 13.6978 10.3824 13.251 9.41829 13.1482C8.50228 13.0509 7.31009 13.2658 5.69954 13.823C5.64578 13.4815 5.47196 13.1704 5.20932 12.9455C4.94669 12.7207 4.61246 12.5969 4.26673 12.5964H2.62829C2.24378 12.5968 1.87514 12.7498 1.60324 13.0217C1.33135 13.2936 1.17841 13.6622 1.17798 14.0467V22.1082C1.17841 22.4927 1.33135 22.8614 1.60324 23.1332C1.87514 23.4051 2.24378 23.5581 2.62829 23.5585H4.26181C4.64228 23.558 5.00736 23.4082 5.27848 23.1412C5.54961 22.8743 5.70512 22.5116 5.71157 22.1312C7.01642 21.948 8.67399 22.8941 10.2807 23.8117C11.6654 24.6025 12.9856 25.3566 14.0886 25.3566C14.2961 25.3583 14.5027 25.3283 14.7011 25.2675L26.7061 22.0508C27.2582 21.9024 27.7288 21.5409 28.0145 21.0457C28.3002 20.5505 28.3776 19.9622 28.2297 19.4099ZM4.26181 22.6835H2.62829C2.47575 22.6834 2.3295 22.6227 2.22164 22.5149C2.11378 22.407 2.05312 22.2607 2.05298 22.1082V14.0467C2.05312 13.8942 2.11378 13.7479 2.22164 13.6401C2.3295 13.5322 2.47575 13.4715 2.62829 13.4714H4.26181C4.41434 13.4715 4.56059 13.5322 4.66845 13.6401C4.77631 13.7479 4.83697 13.8942 4.83712 14.0467V22.1082C4.83697 22.2607 4.77631 22.407 4.66845 22.5149C4.56059 22.6227 4.41434 22.6834 4.26181 22.6835ZM26.4797 21.207L14.467 24.4248L14.4468 24.4308C13.603 24.7004 12.1352 23.8626 10.716 23.0521C9.02454 22.0852 7.2811 21.091 5.71376 21.2474V14.7445C9.28759 13.4627 10.027 14.1009 10.745 14.7188C10.9506 14.9075 11.1741 15.0759 11.4122 15.2214L16.1427 17.9525C16.2704 18.0266 16.3823 18.1252 16.4719 18.2425C16.5616 18.3599 16.6272 18.4937 16.6651 18.6364C16.703 18.7792 16.7124 18.928 16.6929 19.0743C16.6733 19.2207 16.625 19.3618 16.5509 19.4895C16.4768 19.6172 16.3782 19.7291 16.2609 19.8187C16.1435 19.9084 16.0097 19.974 15.867 20.0119C15.7242 20.0498 15.5754 20.0593 15.4291 20.0397C15.2827 20.0201 15.1416 19.9718 15.0139 19.8977L11.0644 17.6178C10.9642 17.5634 10.8467 17.5503 10.7369 17.5812C10.6271 17.6121 10.5338 17.6847 10.4768 17.7835C10.4197 17.8822 10.4035 17.9993 10.4315 18.1099C10.4596 18.2204 10.5297 18.3156 10.6269 18.3752L14.5764 20.6557C14.8791 20.8309 15.2226 20.9231 15.5723 20.9231C15.8861 20.9227 16.1955 20.8489 16.4757 20.7077C16.4963 20.7063 16.5167 20.7035 16.537 20.6995L25.7934 18.7395C26.5213 18.5852 27.2043 18.9719 27.3831 19.6385C27.4704 19.9661 27.4244 20.3149 27.255 20.6085C27.0857 20.9022 26.8069 21.1168 26.4797 21.2053V21.207ZM4.17431 15.0513C4.17474 15.1957 4.13231 15.337 4.05239 15.4573C3.97246 15.5776 3.85865 15.6714 3.72535 15.7269C3.59205 15.7825 3.44527 15.7972 3.3036 15.7693C3.16192 15.7413 3.03173 15.6719 2.9295 15.57C2.82728 15.468 2.75762 15.3379 2.72936 15.1963C2.70109 15.0547 2.71549 14.9079 2.77073 14.7745C2.82596 14.641 2.91955 14.527 3.03964 14.4468C3.15973 14.3666 3.30092 14.3239 3.44532 14.324C3.63824 14.3244 3.82317 14.4011 3.95974 14.5374C4.09631 14.6737 4.17344 14.8584 4.17431 15.0513ZM12.8117 10.2448H13.5521C13.6989 10.7723 13.9093 11.2799 14.1788 11.7564L13.6555 12.2803C13.5182 12.4158 13.4349 12.5967 13.4213 12.7892C13.4077 12.9817 13.4647 13.1725 13.5817 13.3259C14.0445 13.9401 14.591 14.4864 15.2053 14.9491C15.3586 15.0663 15.5495 15.1235 15.742 15.11C15.9345 15.0965 16.1155 15.0132 16.2509 14.8758L16.7749 14.3524C17.2513 14.622 17.7587 14.8328 18.2859 14.9802V15.7207C18.2847 15.9136 18.3539 16.1004 18.4806 16.246C18.6072 16.3915 18.7826 16.4859 18.9738 16.5115C19.7357 16.6188 20.5088 16.6188 21.2707 16.5115C21.4623 16.486 21.6379 16.3915 21.7647 16.2457C21.8915 16.0999 21.9606 15.9128 21.9592 15.7196V14.9802C22.4866 14.8333 22.9942 14.6229 23.4708 14.3535L23.9942 14.8769C24.1296 15.0143 24.3106 15.0976 24.5031 15.1111C24.6956 15.1246 24.8865 15.0674 25.0398 14.9502C25.6539 14.4873 26.2001 13.9405 26.6624 13.3259C26.7793 13.1725 26.8364 12.9818 26.8229 12.7893C26.8094 12.5969 26.7263 12.4159 26.5891 12.2803L26.0652 11.7564C26.3347 11.2801 26.5452 10.7727 26.6919 10.2454H27.4329C27.6259 10.2467 27.8127 10.1775 27.9583 10.0508C28.1039 9.92416 28.1982 9.74872 28.2237 9.55742C28.331 8.79556 28.331 8.02241 28.2237 7.26055C28.1981 7.06935 28.1037 6.89404 27.9581 6.76748C27.8125 6.64093 27.6258 6.57182 27.4329 6.57312H26.6913C26.5443 6.0457 26.3337 5.53812 26.0641 5.06156L26.588 4.5382C26.7245 4.40293 26.8073 4.22271 26.821 4.031C26.8347 3.8393 26.7783 3.64915 26.6624 3.49586C26.1998 2.88129 25.6533 2.33473 25.0387 1.87219C24.8854 1.75498 24.6945 1.69775 24.502 1.71125C24.3095 1.72474 24.1285 1.80802 23.9931 1.94547L23.4697 2.46937C22.9935 2.19919 22.4863 1.98782 21.9592 1.83992V1.09945C21.9605 0.906497 21.8915 0.719681 21.7649 0.574008C21.6384 0.428336 21.4631 0.333804 21.2718 0.308125C20.5099 0.201979 19.7369 0.201979 18.9749 0.308125C18.7837 0.333916 18.6085 0.42848 18.482 0.574128C18.3554 0.719775 18.2863 0.906529 18.2875 1.09945V1.83992C17.7597 1.98692 17.2518 2.19755 16.7749 2.46719L16.2509 1.94328C16.1154 1.80605 15.9344 1.72291 15.742 1.70942C15.5495 1.69593 15.3587 1.75302 15.2053 1.87C14.5906 2.33321 14.044 2.88051 13.5817 3.49586C13.4646 3.64929 13.4076 3.84012 13.4212 4.03261C13.4347 4.2251 13.5181 4.40602 13.6555 4.54148L14.1788 5.06484C13.9092 5.54132 13.6987 6.04892 13.5521 6.57641H12.8117C12.6187 6.57509 12.4319 6.64417 12.2862 6.77072C12.1405 6.89726 12.046 7.07258 12.0203 7.26383C11.913 8.02569 11.913 8.79884 12.0203 9.5607C12.0466 9.7514 12.1414 9.926 12.2871 10.0519C12.4327 10.1778 12.6192 10.2464 12.8117 10.2448ZM12.8778 7.44922H13.8928C13.9923 7.44924 14.0889 7.41533 14.1665 7.35309C14.2442 7.29085 14.2983 7.204 14.3199 7.10687C14.469 6.44058 14.7325 5.80518 15.0987 5.22891C15.1519 5.14494 15.1749 5.04536 15.164 4.94655C15.1531 4.84774 15.1088 4.75561 15.0385 4.68531L14.321 3.96727C14.7123 3.4568 15.169 3.00007 15.6795 2.60883L16.397 3.32687C16.4673 3.3973 16.5595 3.44164 16.6585 3.45258C16.7574 3.46352 16.8571 3.44039 16.9411 3.38703C17.5174 3.02085 18.1528 2.75736 18.8191 2.60828C18.9157 2.58661 19.0022 2.53278 19.0643 2.45559C19.1264 2.3784 19.1604 2.28242 19.1609 2.18336V1.16562C19.7986 1.0825 20.4443 1.0825 21.082 1.16562V2.18336C21.082 2.28287 21.1159 2.37942 21.1782 2.45707C21.2404 2.53471 21.3273 2.58882 21.4244 2.61047C22.0903 2.75868 22.7256 3.02124 23.3018 3.38648C23.3858 3.43985 23.4855 3.46297 23.5845 3.45203C23.6834 3.4411 23.7756 3.39675 23.8459 3.32633L24.564 2.60828C25.0742 2.99968 25.5307 3.4564 25.9219 3.96672L25.2044 4.68476C25.1341 4.75506 25.0898 4.8472 25.0789 4.946C25.068 5.04481 25.091 5.1444 25.1442 5.22836C25.5105 5.80421 25.7739 6.43926 25.923 7.10523C25.9447 7.20226 25.9989 7.28899 26.0765 7.35112C26.1542 7.41325 26.2507 7.44708 26.3501 7.44703H27.3651C27.4489 8.08468 27.4489 8.73056 27.3651 9.3682H26.3495C26.2502 9.36828 26.1538 9.40217 26.0763 9.46429C25.9988 9.52641 25.9447 9.61306 25.923 9.71C25.7741 10.3769 25.5106 11.0128 25.1442 11.5896C25.091 11.6736 25.068 11.7732 25.0789 11.872C25.0898 11.9708 25.1341 12.0629 25.2044 12.1332L25.9224 12.8512C25.5309 13.3615 25.0742 13.8182 24.564 14.2097L23.8459 13.4922C23.7756 13.422 23.6834 13.3778 23.5846 13.367C23.4858 13.3562 23.3863 13.3793 23.3024 13.4326C22.726 13.7989 22.0903 14.0624 21.4238 14.2113C21.3269 14.2331 21.2402 14.2871 21.1781 14.3647C21.116 14.4422 21.0821 14.5385 21.082 14.6379V15.6534C20.4443 15.7366 19.7986 15.7366 19.1609 15.6534V14.6379C19.1609 14.5385 19.1271 14.442 19.065 14.3643C19.0028 14.2867 18.9161 14.2325 18.8191 14.2108C18.1526 14.0623 17.5171 13.7988 16.9411 13.432C16.8571 13.3787 16.7574 13.3555 16.6585 13.3665C16.5595 13.3774 16.4673 13.4218 16.397 13.4922L15.6795 14.2102C15.169 13.819 14.7123 13.3623 14.321 12.8518L15.0385 12.1365C15.1088 12.0662 15.1531 11.9741 15.164 11.8752C15.1749 11.7764 15.1519 11.6769 15.0987 11.5929C14.7324 11.0167 14.4689 10.3813 14.3199 9.71492C14.2983 9.61779 14.2442 9.53094 14.1665 9.4687C14.0889 9.40647 13.9923 9.37256 13.8928 9.37258H12.8778C12.794 8.73512 12.794 8.08941 12.8778 7.45195V7.44922ZM20.1217 12.7927C20.9882 12.7927 21.8352 12.5358 22.5557 12.0544C23.2761 11.573 23.8377 10.8888 24.1693 10.0883C24.5008 9.28773 24.5876 8.40686 24.4186 7.55702C24.2495 6.70719 23.8323 5.92657 23.2196 5.31387C22.6069 4.70118 21.8263 4.28393 20.9764 4.11488C20.1266 3.94584 19.2457 4.0326 18.4452 4.36419C17.6447 4.69578 16.9604 5.2573 16.479 5.97776C15.9977 6.69821 15.7407 7.54524 15.7407 8.41172C15.742 9.57324 16.204 10.6868 17.0253 11.5081C17.8466 12.3294 18.9602 12.7914 20.1217 12.7927ZM20.1217 4.9057C20.8152 4.9057 21.493 5.11133 22.0696 5.49657C22.6461 5.88182 23.0955 6.42938 23.3609 7.07002C23.6262 7.71066 23.6957 8.41561 23.5604 9.09571C23.4251 9.77581 23.0912 10.4005 22.6009 10.8908C22.1105 11.3812 21.4858 11.7151 20.8057 11.8504C20.1256 11.9856 19.4207 11.9162 18.78 11.6509C18.1394 11.3855 17.5918 10.9361 17.2066 10.3596C16.8213 9.783 16.6157 9.10514 16.6157 8.41172C16.6161 7.4818 16.9856 6.59005 17.643 5.9323C18.3003 5.27454 19.1918 4.90453 20.1217 4.90351V4.9057ZM18.3023 8.8257C18.2617 8.78505 18.2295 8.7368 18.2075 8.68371C18.1855 8.63061 18.1742 8.57371 18.1743 8.51625C18.1743 8.45879 18.1856 8.4019 18.2076 8.34882C18.2297 8.29575 18.2619 8.24753 18.3026 8.20691C18.3432 8.1663 18.3914 8.13409 18.4445 8.11213C18.4976 8.09016 18.5545 8.07887 18.612 8.0789C18.6695 8.07892 18.7264 8.09026 18.7794 8.11228C18.8325 8.13429 18.8807 8.16654 18.9213 8.20719L19.6241 8.90992L21.303 6.98328C21.3817 6.9056 21.4869 6.8606 21.5974 6.85734C21.7079 6.85407 21.8156 6.89277 21.8987 6.96567C21.9819 7.03856 22.0343 7.14023 22.0456 7.25023C22.0568 7.36024 22.0259 7.47041 21.9592 7.55859L19.9741 9.83578C19.9347 9.88102 19.8863 9.91768 19.8322 9.94345C19.778 9.96923 19.719 9.98359 19.6591 9.98562H19.6443C19.5868 9.98567 19.5299 9.97439 19.4768 9.95243C19.4237 9.93048 19.3754 9.89827 19.3348 9.85766L18.3023 8.8257Z" fill="white" stroke="white" stroke-width="0.4"/>
</svg>
