<svg width="29" height="29" viewBox="0 0 29 29" fill="none" xmlns="http://www.w3.org/2000/svg">
<path d="M24.0465 2.59277H5.43448C4.45543 2.59436 3.51692 2.98392 2.82453 3.67612C2.13214 4.36832 1.74233 5.30672 1.74048 6.28577V25.5928C1.7406 25.7828 1.79485 25.9688 1.89686 26.129C1.99886 26.2893 2.14442 26.4172 2.31648 26.4978C2.44902 26.5605 2.59385 26.5929 2.74048 26.5928C2.97425 26.593 3.2007 26.5112 3.38048 26.3618L9.10248 21.5928H24.0465C25.0255 21.5912 25.964 21.2016 26.6564 20.5094C27.3488 19.8172 27.7386 18.8788 27.7405 17.8998V6.28577C27.7386 5.30672 27.3488 4.36832 26.6564 3.67612C25.964 2.98392 25.0255 2.59436 24.0465 2.59277ZM25.7405 17.8998C25.7386 18.3484 25.5595 18.7781 25.2422 19.0952C24.9249 19.4124 24.4951 19.5912 24.0465 19.5928H8.74048C8.5067 19.5926 8.28025 19.6743 8.10048 19.8238L3.74048 23.4578V6.28577C3.74232 5.83716 3.92142 5.40746 4.23874 5.09033C4.55605 4.7732 4.98586 4.59435 5.43448 4.59277H24.0465C24.4951 4.59435 24.9249 4.7732 25.2422 5.09033C25.5595 5.40746 25.7386 5.83716 25.7405 6.28577V17.8998Z" fill="white"/>
<path d="M20.7405 8.59277H8.74048C8.47526 8.59277 8.22091 8.69813 8.03337 8.88567C7.84584 9.0732 7.74048 9.32756 7.74048 9.59277C7.74048 9.85799 7.84584 10.1123 8.03337 10.2999C8.22091 10.4874 8.47526 10.5928 8.74048 10.5928H20.7405C21.0057 10.5928 21.26 10.4874 21.4476 10.2999C21.6351 10.1123 21.7405 9.85799 21.7405 9.59277C21.7405 9.32756 21.6351 9.0732 21.4476 8.88567C21.26 8.69813 21.0057 8.59277 20.7405 8.59277Z" fill="white"/>
<path d="M14.7405 13.5928H8.74048C8.47526 13.5928 8.22091 13.6981 8.03337 13.8857C7.84584 14.0732 7.74048 14.3276 7.74048 14.5928C7.74048 14.858 7.84584 15.1123 8.03337 15.2999C8.22091 15.4874 8.47526 15.5928 8.74048 15.5928H14.7405C15.0057 15.5928 15.2601 15.4874 15.4476 15.2999C15.6351 15.1123 15.7405 14.858 15.7405 14.5928C15.7405 14.3276 15.6351 14.0732 15.4476 13.8857C15.2601 13.6981 15.0057 13.5928 14.7405 13.5928Z" fill="white"/>
</svg>