<svg width="103" height="104" viewBox="0 0 103 104" fill="none" xmlns="http://www.w3.org/2000/svg">
<g filter="url(#filter0_i_243_3056)">
<rect x="0.671005" y="0.5" width="102" height="103" rx="51" fill="white"/>
<rect x="2.67101" y="2.5" width="98" height="99" rx="49" stroke="#16A636" stroke-width="4"/>
<path d="M31.9835 73.0933H36.2023C36.9778 73.0933 37.6085 72.4626 37.6085 71.687V70.2808H53.5033C57.0358 70.2808 60.4875 69.2908 63.4828 67.419C67.999 64.596 71.1201 59.9687 72.0462 54.7234L72.3513 52.9951C72.4877 52.2231 72.2775 51.4356 71.7733 50.8351C71.2692 50.2347 70.5302 49.8901 69.7462 49.8901C69.318 49.8901 68.9102 49.9963 68.546 50.1819V47.0776H69.2491C69.5332 47.0776 69.7905 46.9061 69.8988 46.6438C70.0078 46.3808 69.9473 46.0785 69.7462 45.8774L64.1212 40.2524C63.8463 39.9775 63.4019 39.9775 63.127 40.2524L61.5148 41.8647V32.312C61.5148 31.9239 61.2005 31.6089 60.8116 31.6089H53.7804C53.3916 31.6089 53.0773 31.9239 53.0773 32.312V40.0464H50.2282C49.6931 38.8694 49.2973 38.181 48.9794 37.7816L50.7562 33.4391C50.9538 32.9645 50.8385 32.4308 50.4623 32.08C50.0862 31.7284 49.5455 31.6518 49.0863 31.881L47.7567 32.5454L46.9193 31.4289C46.7076 31.1462 46.3842 30.969 46.0319 30.9437C45.679 30.9177 45.3337 31.0464 45.0813 31.2974L44.0119 32.3662L43.3094 31.4289C43.0971 31.1455 42.7737 30.969 42.4207 30.9437C42.0684 30.9177 41.7218 31.0471 41.4715 31.2974L40.1222 32.6467L38.0944 32.0673C37.6183 31.9309 37.1156 32.0926 36.8083 32.4772C36.5004 32.8619 36.4533 33.3899 36.6888 33.8209L38.8151 37.7465C37.3223 39.0951 35.4991 42.8842 35.4991 46.3274V48.4839C35.4991 50.8105 37.3912 52.7026 39.7179 52.7026H47.4523H53.7804H59.4054H66.7052L65.2202 55.6733L61.3537 57.3306C60.9199 55.8801 59.5889 54.812 57.9991 54.812H47.8762C44.2172 54.812 40.6966 55.8203 37.6085 57.7272V56.2183C37.6085 55.4427 36.9778 54.812 36.2023 54.812H31.9835C31.208 54.812 30.5773 55.4427 30.5773 56.2183V71.687C30.5773 72.4626 31.208 73.0933 31.9835 73.0933ZM39.8423 34.0297C40.2677 34.1514 40.7269 34.0333 41.0391 33.7197L42.3138 32.4449L43.0169 33.3836C43.23 33.6662 43.5541 33.8434 43.9071 33.868C44.2643 33.8912 44.6046 33.7633 44.8542 33.5137L45.9237 32.4449L46.7259 33.5137C47.0782 33.9862 47.7166 34.138 48.2461 33.8737L49.2691 33.3618L47.6829 37.2339H45.7774L46.6746 35.4388L45.4167 34.8095L44.2052 37.2339H42.9726L41.9925 35.1948L40.7248 35.8044L41.4117 37.2339H40.1362L38.1373 33.5425L39.8423 34.0297ZM46.7491 40.7495V51.2964H39.7179C38.1668 51.2964 36.9054 50.035 36.9054 48.4839V46.3274C36.9054 42.5636 39.2348 39.0536 39.9014 38.6401H47.8657C47.9796 38.7779 48.2376 39.1478 48.6743 40.0464H47.4523C47.0634 40.0464 46.7491 40.3614 46.7491 40.7495ZM48.1554 41.4526H53.0773V51.2964H48.1554V41.4526ZM63.6241 41.7437L67.5518 45.6714H59.6965L63.6241 41.7437ZM54.4835 33.0151H60.1085V43.2709L57.502 45.8774C57.3009 46.0785 57.2405 46.3808 57.3494 46.6438C57.4577 46.9061 57.7151 47.0776 57.9991 47.0776H58.7023V51.2964H54.4835V33.0151ZM60.1085 47.0776H67.1398V51.2964H65.7335V48.4839C65.7335 48.0958 65.4192 47.7808 65.0304 47.7808H62.2179C61.8291 47.7808 61.5148 48.0958 61.5148 48.4839V51.2964H60.1085V47.0776ZM64.3273 51.2964H62.921V49.187H64.3273V51.2964ZM47.8762 56.2183H57.9991C59.1621 56.2183 60.1085 57.1647 60.1085 58.3276C60.1085 59.4906 59.1621 60.437 57.9991 60.437H46.7491V61.8433H57.9991C59.7717 61.8433 61.2272 60.52 61.4655 58.8121L66.0098 56.8644C66.1631 56.799 66.2883 56.6816 66.3621 56.5326L68.6374 51.9812C68.8498 51.5587 69.2737 51.2964 69.7462 51.2964C70.1133 51.2964 70.4599 51.4574 70.6962 51.7394C70.9324 52.0213 71.0316 52.3897 70.9676 52.7512L70.6624 54.4794C69.8053 59.3331 66.9176 63.6144 62.7375 66.2265C59.9658 67.959 56.7729 68.8745 53.5033 68.8745H37.6085V59.409C40.6453 57.3264 44.1848 56.2183 47.8762 56.2183ZM31.9835 56.2183H36.2023L36.203 71.687H31.9835V56.2183Z" fill="black"/>
<path d="M33.3898 58.3281H34.796V60.4375H33.3898V58.3281Z" fill="black"/>
<path d="M55.8898 34.4219H56.5929V35.8281H55.8898V34.4219Z" fill="black"/>
<path d="M57.9991 34.4219H58.7023V35.8281H57.9991V34.4219Z" fill="black"/>
<path d="M55.8898 37.2344H56.5929V38.6406H55.8898V37.2344Z" fill="black"/>
<path d="M57.9991 37.2344H58.7023V38.6406H57.9991V37.2344Z" fill="black"/>
<path d="M55.8898 40.0469H56.5929V41.4531H55.8898V40.0469Z" fill="black"/>
<path d="M57.9991 40.0469H58.7023V41.4531H57.9991V40.0469Z" fill="black"/>
<path d="M49.5616 42.8594H50.2648V44.2656H49.5616V42.8594Z" fill="black"/>
<path d="M51.671 42.8594H52.3741V44.2656H51.671V42.8594Z" fill="black"/>
<path d="M49.5616 45.6719H50.2648V47.0781H49.5616V45.6719Z" fill="black"/>
<path d="M51.671 45.6719H52.3741V47.0781H51.671V45.6719Z" fill="black"/>
<path d="M49.5616 48.4844H50.2648V49.8906H49.5616V48.4844Z" fill="black"/>
<path d="M51.671 48.4844H52.3741V49.8906H51.671V48.4844Z" fill="black"/>
<path d="M55.8898 42.8594H56.5929V44.2656H55.8898V42.8594Z" fill="black"/>
<path d="M57.9991 42.8594H58.7023V44.2656H57.9991V42.8594Z" fill="black"/>
<path d="M44.6398 42.1562H43.9366V41.4531H42.5304V42.1562H41.8273C41.4384 42.1562 41.1241 42.4713 41.1241 42.8594V44.9688C41.1241 45.3569 41.4384 45.6719 41.8273 45.6719H43.9366V46.375H41.1241V47.0781C41.1241 47.4662 41.4384 47.7812 41.8273 47.7812H42.5304V48.4844H43.9366V47.7812H44.6398C45.0286 47.7812 45.3429 47.4662 45.3429 47.0781V44.9688C45.3429 44.5806 45.0286 44.2656 44.6398 44.2656H42.5304V43.5625H45.3429V42.8594C45.3429 42.4713 45.0286 42.1562 44.6398 42.1562Z" fill="black"/>
<path d="M66.4366 32.3125H67.8429V33.7188H66.4366V32.3125Z" fill="black"/>
<path d="M67.8429 30.9062H69.2491V32.3125H67.8429V30.9062Z" fill="black"/>
<path d="M69.2491 32.3125H70.6554V33.7188H69.2491V32.3125Z" fill="black"/>
<path d="M67.8429 33.7188H69.2491V35.125H67.8429V33.7188Z" fill="black"/>
<path d="M71.3585 35.8281H72.7648V37.2344H71.3585V35.8281Z" fill="black"/>
<path d="M66.4366 37.9375H67.8429V39.3438H66.4366V37.9375Z" fill="black"/>
<path d="M30.5773 37.2344H31.9835V38.6406H30.5773V37.2344Z" fill="black"/>
<path d="M31.9835 35.8281H33.3898V37.2344H31.9835V35.8281Z" fill="black"/>
<path d="M33.3898 37.2344H34.796V38.6406H33.3898V37.2344Z" fill="black"/>
<path d="M31.9835 38.6406H33.3898V40.0469H31.9835V38.6406Z" fill="black"/>
<path d="M30.5773 42.8594H31.9835V44.2656H30.5773V42.8594Z" fill="black"/>
<path d="M33.3898 30.9062H34.796V32.3125H33.3898V30.9062Z" fill="black"/>
</g>
<defs>
<filter id="filter0_i_243_3056" x="0.671005" y="0.5" width="102" height="103" filterUnits="userSpaceOnUse" color-interpolation-filters="sRGB">
<feFlood flood-opacity="0" result="BackgroundImageFix"/>
<feBlend mode="normal" in="SourceGraphic" in2="BackgroundImageFix" result="shape"/>
<feColorMatrix in="SourceAlpha" type="matrix" values="0 0 0 0 0 0 0 0 0 0 0 0 0 0 0 0 0 0 127 0" result="hardAlpha"/>
<feOffset/>
<feGaussianBlur stdDeviation="2.5"/>
<feComposite in2="hardAlpha" operator="arithmetic" k2="-1" k3="1"/>
<feColorMatrix type="matrix" values="0 0 0 0 0 0 0 0 0 0 0 0 0 0 0 0 0 0 0.15 0"/>
<feBlend mode="normal" in2="shape" result="effect1_innerShadow_243_3056"/>
</filter>
</defs>
</svg>
