<svg width="91" height="90" viewBox="0 0 91 90" fill="none" xmlns="http://www.w3.org/2000/svg">
<rect x="0.371094" width="90" height="90" rx="12.8571" fill="#939393"/>
<path fill-rule="evenodd" clip-rule="evenodd" d="M45.3719 22.9016C33.1674 22.9016 23.2737 32.7954 23.2737 44.9999C23.2737 57.2044 33.1674 67.0981 45.3719 67.0981C57.5764 67.0981 67.4701 57.2044 67.4701 44.9999C67.4701 42.4135 67.0267 39.935 66.2132 37.6336C65.8435 36.5875 66.3918 35.4398 67.4379 35.07C68.4839 34.7003 69.6317 35.2486 70.0014 36.2947C70.9647 39.0201 71.488 41.951 71.488 44.9999C71.488 59.4234 59.7954 71.1159 45.3719 71.1159C30.9484 71.1159 19.2559 59.4234 19.2559 44.9999C19.2559 30.5764 30.9484 18.8838 45.3719 18.8838C47.6233 18.8838 49.811 19.1691 51.8995 19.7067C52.9739 19.9832 53.6208 21.0785 53.3442 22.1529C53.0677 23.2274 51.9725 23.8743 50.898 23.5977C49.1339 23.1437 47.2826 22.9016 45.3719 22.9016Z" fill="white"/>
<path d="M45.3708 28.9287C46.4803 28.9287 47.3797 29.8281 47.3797 30.9376V32.9466H51.3976C52.5071 32.9466 53.4065 33.846 53.4065 34.9555C53.4065 36.065 52.5071 36.9644 51.3976 36.9644H42.3574C41.5582 36.9644 40.7918 37.2819 40.2266 37.847C39.6615 38.4121 39.344 39.1786 39.344 39.9778C39.344 40.777 39.6615 41.5435 40.2266 42.1086C40.7918 42.6737 41.5582 42.9912 42.3574 42.9912H48.3842C50.249 42.9912 52.0374 43.732 53.3561 45.0506C54.6747 46.3692 55.4155 48.1577 55.4155 50.0225C55.4155 51.8873 54.6747 53.6757 53.3561 54.9943C52.0374 56.3129 50.249 57.0537 48.3842 57.0537H47.3797V59.0626C47.3797 60.1721 46.4803 61.0716 45.3708 61.0716C44.2613 61.0716 43.3619 60.1721 43.3619 59.0626V57.0537H39.344C38.2345 57.0537 37.3351 56.1543 37.3351 55.0448C37.3351 53.9353 38.2345 53.0359 39.344 53.0359H48.3842C49.1834 53.0359 49.9499 52.7184 50.515 52.1533C51.0801 51.5881 51.3976 50.8217 51.3976 50.0225C51.3976 49.2233 51.0801 48.4568 50.515 47.8917C49.9499 47.3265 49.1834 47.0091 48.3842 47.0091H42.3574C40.4926 47.0091 38.7042 46.2683 37.3856 44.9497C36.067 43.631 35.3262 41.8426 35.3262 39.9778C35.3262 38.113 36.067 36.3246 37.3856 35.006C38.7042 33.6874 40.4926 32.9466 42.3574 32.9466H43.3619V30.9376C43.3619 29.8281 44.2613 28.9287 45.3708 28.9287Z" fill="white"/>
<path fill-rule="evenodd" clip-rule="evenodd" d="M66.0176 31.5367C61.6556 31.5367 58.1195 28.0006 58.1195 23.6387C58.1195 21.7434 58.7871 20.0041 59.8999 18.643L71.0132 29.7564C69.6521 30.8692 67.9128 31.5367 66.0176 31.5367ZM72.1362 28.6332C73.2484 27.2722 73.9156 25.5334 73.9156 23.6387C73.9156 19.2767 70.3795 15.7406 66.0176 15.7406C64.1229 15.7406 62.384 16.4078 61.0231 17.52L72.1362 28.6332ZM56.5312 23.6387C56.5312 18.3995 60.7784 14.1523 66.0176 14.1523C71.2567 14.1523 75.5039 18.3995 75.5039 23.6387C75.5039 28.8778 71.2567 33.125 66.0176 33.125C60.7784 33.125 56.5312 28.8778 56.5312 23.6387Z" fill="white"/>
</svg>
