<svg width="105" height="104" viewBox="0 0 105 104" fill="none" xmlns="http://www.w3.org/2000/svg">
<circle cx="52.5" cy="52" r="50" fill="#33434F" stroke="white" stroke-width="4"/>
<path d="M64.7209 44.1569C64.7209 40.7991 63.352 37.7599 61.1423 35.562C58.93 33.3616 55.8745 32 52.4987 32C49.1229 32 46.0674 33.3616 43.8551 35.562C41.6454 37.7599 40.2765 40.7991 40.2765 44.1569C40.2765 47.5146 41.6454 50.5538 43.8551 52.7518C46.0674 54.9522 49.1229 56.3137 52.4987 56.3137C55.8745 56.3137 58.93 54.9522 61.1423 52.7518C62.2786 51.6242 63.1797 50.2845 63.7938 48.8095C64.408 47.3345 64.723 45.7533 64.7209 44.1569ZM37.832 68.4706C37.832 70.902 43.332 73.3333 52.4987 73.3333C61.0983 73.3333 67.1654 70.902 67.1654 68.4706C67.1654 63.6078 61.4111 58.7451 52.4987 58.7451C43.332 58.7451 37.832 63.6078 37.832 68.4706Z" fill="white"/>
</svg>
