<svg width="29" height="29" viewBox="0 0 29 29" fill="none" xmlns="http://www.w3.org/2000/svg">
<g clip-path="url(#clip0_1511_4068)">
<path d="M27.6582 2.64453H15.6302C15.0347 2.64453 14.5496 3.12906 14.5496 3.72516V11.5449L14.1903 11.3519C13.7463 11.1118 13.2174 11.1145 12.775 11.3584L12.1549 11.6909V8.47641C12.1549 7.95414 11.7299 7.52922 11.2077 7.52922H1.68767C1.1654 7.52922 0.740479 7.95414 0.740479 8.47641V26.5036C0.740479 26.7453 0.93626 26.9405 1.17743 26.9405H7.19688H11.3531H15.6237H19.7816H27.5838C28.2215 26.9405 28.7405 26.4227 28.7405 25.7855V3.72516C28.7405 3.12961 28.2549 2.64453 27.6582 2.64453ZM13.1906 12.1279C13.1923 12.1268 13.1939 12.1257 13.1961 12.1252C13.3771 12.0245 13.5937 12.0234 13.7758 12.1219L21.881 16.4701C22.0232 16.5466 22.1271 16.6741 22.1736 16.8288C22.2201 16.9836 22.2031 17.1477 22.126 17.2909C21.9691 17.5841 21.6016 17.694 21.3068 17.5365L20.6084 17.1619C20.5926 17.152 20.5756 17.1427 20.5581 17.1351L13.6959 13.4519C13.5669 13.3824 13.4116 13.3824 13.2825 13.4519L6.40665 17.1411C6.3979 17.1455 6.38915 17.1498 6.3804 17.1553L5.67001 17.5365C5.37579 17.694 5.00829 17.5835 4.85079 17.2898C4.77423 17.1477 4.75782 16.9841 4.80431 16.8294C4.85079 16.6746 4.95524 16.5466 5.09688 16.4701L7.58353 15.1362C7.58735 15.1341 7.59063 15.1324 7.59446 15.1302L9.79782 13.9484C9.80657 13.9441 9.81587 13.9391 9.82407 13.9342L13.1906 12.1279ZM23.9903 26.0666H20.802C20.8102 26.0147 20.8157 25.9616 20.8157 25.907V21.509H23.9378C23.9657 21.509 23.9903 21.5336 23.9903 21.5615V26.0666ZM19.9413 25.907C19.9413 25.9934 19.868 26.0666 19.7816 26.0666H16.0612V21.8147C16.0612 21.573 15.8654 21.3777 15.6242 21.3777H11.3537C11.1125 21.3777 10.9167 21.5735 10.9167 21.8147V26.0666H7.19798C7.11157 26.0666 7.03829 25.9934 7.03829 25.907V17.7952L13.4903 14.3334L19.9424 17.7957V25.907H19.9413ZM9.16728 13.2944L7.81868 14.0179V11.7276H9.16728V13.2944ZM1.61493 8.47641C1.61493 8.43648 1.64774 8.40367 1.68767 8.40367H11.2077C11.2476 8.40367 11.2804 8.43648 11.2804 8.47641V12.1607L10.0417 12.8252V11.7134C10.0417 11.2392 9.65509 10.8531 9.17985 10.8531H7.80501C7.33087 10.8531 6.94478 11.2392 6.94478 11.7134V14.4871L4.68345 15.7001C4.33563 15.8871 4.08134 16.1988 3.96704 16.5773C3.85329 16.9563 3.89321 17.3566 4.08079 17.7044C4.46634 18.4213 5.36485 18.6915 6.0829 18.307L6.16274 18.2638V25.9064C6.16274 25.9611 6.16821 26.0136 6.17642 26.0661H1.61493V8.47641ZM11.7906 26.0666V22.2516H15.1873V26.0666H11.7906ZM27.866 25.7861C27.866 25.9409 27.7397 26.0666 27.5838 26.0666H24.8648V21.562C24.8648 21.0507 24.4492 20.6351 23.9378 20.6351H20.8157V18.2655L20.8945 18.3076H20.895C21.117 18.4262 21.3566 18.4831 21.5923 18.4831C21.9002 18.4831 22.202 18.3863 22.4531 18.208C22.5274 18.4963 22.7888 18.7101 23.0989 18.7101H25.2629C25.6315 18.7101 25.9312 18.4098 25.9312 18.0402V15.8778C25.9312 15.5087 25.6315 15.2079 25.2629 15.2079H23.0989C22.7609 15.2079 22.4815 15.4611 22.4377 15.7876C22.3924 15.7559 22.3448 15.7263 22.295 15.7001L18.2799 13.5459H20.1912C20.5598 13.5459 20.8595 13.2457 20.8595 12.876V10.712C20.8595 10.3434 20.5598 10.0438 20.1912 10.0438H18.0272C17.6581 10.0438 17.3573 10.3434 17.3573 10.712V12.876C17.3573 12.9422 17.3671 13.0056 17.3852 13.0658L15.4241 12.0141V3.72516C15.4241 3.61141 15.5165 3.51898 15.6302 3.51898H27.6582C27.7725 3.51898 27.866 3.61141 27.866 3.72516V25.7861ZM23.3051 17.8351V16.0818H25.0567V17.8351H23.3051ZM18.2317 12.6715V10.9182H19.985V12.6715H18.2317ZM20.1912 4.88016H18.0272C17.6581 4.88016 17.3573 5.17984 17.3573 5.54844V7.71242C17.3573 8.08102 17.6575 8.3807 18.0272 8.3807H20.1912C20.5598 8.3807 20.8595 8.08102 20.8595 7.71242V5.54844C20.8589 5.17984 20.5592 4.88016 20.1912 4.88016ZM19.985 7.50625H18.2317V5.75461H19.985V7.50625ZM25.2634 4.88016H23.0995C22.7309 4.88016 22.4312 5.17984 22.4312 5.54844V7.71242C22.4312 8.08102 22.7309 8.3807 23.0995 8.3807H25.2634C25.632 8.3807 25.9317 8.08102 25.9317 7.71242V5.54844C25.9312 5.17984 25.6315 4.88016 25.2634 4.88016ZM25.0573 7.50625H23.3056V5.75461H25.0573V7.50625ZM25.2634 10.0438H23.0995C22.7309 10.0438 22.4312 10.3434 22.4312 10.712V12.876C22.4312 13.2452 22.7309 13.5459 23.0995 13.5459H25.2634C25.632 13.5459 25.9317 13.2457 25.9317 12.876V10.712C25.9312 10.3434 25.6315 10.0438 25.2634 10.0438ZM25.0573 12.6715H23.3056V10.9182H25.0573V12.6715Z" fill="#262626"/>
</g>
<defs>
<clipPath id="clip0_1511_4068">
<rect width="28" height="28" fill="white" transform="translate(0.740479 0.792969)"/>
</clipPath>
</defs>
</svg>