<svg width="29" height="29" viewBox="0 0 29 29" fill="none" xmlns="http://www.w3.org/2000/svg">
<path d="M24.211 10.6038H23.334C23.06 9.97018 22.7205 9.3669 22.321 8.80383L22.769 8.05683C23.1734 7.38257 23.2936 6.57533 23.1031 5.81252C22.9126 5.04972 22.427 4.39376 21.753 3.98883L19.976 2.92383C19.3017 2.52054 18.4949 2.40102 17.7326 2.59146C16.9703 2.7819 16.3145 3.26678 15.909 3.93983L15.462 4.68683C14.6082 4.57683 13.7438 4.57683 12.89 4.68683L12.443 3.93983C12.0375 3.26678 11.3818 2.7819 10.6195 2.59146C9.85713 2.40102 9.05039 2.52054 8.37603 2.92383L6.59903 3.98883C5.92508 4.39376 5.43948 5.04972 5.24897 5.81252C5.05845 6.57533 5.17861 7.38257 5.58303 8.05683L6.03103 8.80283C5.63177 9.36638 5.29227 9.96997 5.01803 10.6038H4.14003C3.35408 10.6049 2.60063 10.9176 2.04498 11.4735C1.48932 12.0293 1.17682 12.7829 1.17603 13.5688V15.6388C1.17682 16.4248 1.48932 17.1783 2.04498 17.7342C2.60063 18.29 3.35408 18.6028 4.14003 18.6038H5.01803C5.29233 19.2373 5.63183 19.8406 6.03103 20.4038L5.58303 21.1498C5.17861 21.8241 5.05845 22.6313 5.24897 23.3941C5.43948 24.1569 5.92508 24.8129 6.59903 25.2178L8.37603 26.2838C9.05019 26.6879 9.8572 26.8079 10.6198 26.6174C11.3823 26.4269 12.0381 25.9415 12.443 25.2678L12.89 24.5208C13.7438 24.6308 14.6082 24.6308 15.462 24.5208L15.909 25.2678C16.3145 25.9409 16.9703 26.4258 17.7326 26.6162C18.4949 26.8066 19.3017 26.6871 19.976 26.2838L21.752 25.2188C22.426 24.8139 22.9116 24.1579 23.1021 23.3951C23.2926 22.6323 23.1724 21.8251 22.768 21.1508L22.32 20.4038C22.7198 19.8408 23.0597 19.2375 23.334 18.6038H24.211C24.9971 18.603 25.7508 18.2904 26.3067 17.7345C26.8626 17.1786 27.1752 16.4249 27.176 15.6388V13.5688C27.1752 12.7827 26.8626 12.029 26.3067 11.4731C25.7508 10.9173 24.9971 10.6046 24.211 10.6038ZM25.176 15.6388C25.1758 15.8947 25.074 16.14 24.8931 16.3209C24.7122 16.5018 24.4669 16.6036 24.211 16.6038H22.653C22.4464 16.6039 22.245 16.668 22.0763 16.7873C21.9076 16.9065 21.78 17.0751 21.711 17.2698C21.4019 18.1554 20.9388 18.9794 20.343 19.7038C20.2113 19.8634 20.1323 20.0598 20.1169 20.2661C20.1014 20.4725 20.1504 20.6785 20.257 20.8558L21.057 22.1858C21.1223 22.2944 21.1656 22.4148 21.1843 22.5401C21.203 22.6654 21.1968 22.7931 21.1661 22.916C21.1353 23.0389 21.0806 23.1545 21.0051 23.2563C20.9296 23.358 20.8348 23.4438 20.726 23.5088L18.951 24.5738C18.8424 24.639 18.7219 24.6822 18.5966 24.7008C18.4712 24.7195 18.3434 24.7133 18.2205 24.6825C18.0975 24.6518 17.9818 24.5972 17.88 24.5217C17.7782 24.4463 17.6922 24.3515 17.627 24.2428L16.827 22.9148C16.7226 22.7367 16.5653 22.5956 16.3769 22.5112C16.1885 22.4268 15.9784 22.4032 15.776 22.4438C14.7233 22.6558 13.6388 22.6558 12.586 22.4438C12.3834 22.4012 12.1725 22.4232 11.983 22.5068C11.7935 22.5904 11.6351 22.7314 11.53 22.9098L10.73 24.2378C10.6649 24.3465 10.579 24.4412 10.4773 24.5166C10.3756 24.5921 10.26 24.6467 10.1371 24.6775C10.0142 24.7082 9.88653 24.7144 9.76126 24.6958C9.63599 24.6771 9.51562 24.634 9.40703 24.5688L7.62903 23.5038C7.52029 23.4388 7.42545 23.353 7.34994 23.2513C7.27443 23.1495 7.21973 23.0339 7.18898 22.911C7.15824 22.7881 7.15204 22.6604 7.17075 22.5351C7.18946 22.4098 7.23271 22.2894 7.29803 22.1808L8.09803 20.8508C8.20308 20.6737 8.25091 20.4685 8.23498 20.2632C8.21906 20.058 8.14014 19.8626 8.00903 19.7038C7.41399 18.9813 6.95122 18.1593 6.64203 17.2758C6.57397 17.0798 6.44665 16.9099 6.27769 16.7894C6.10873 16.669 5.9065 16.6042 5.69903 16.6038H4.14003C3.88435 16.6033 3.6393 16.5014 3.45861 16.3205C3.27791 16.1397 3.17629 15.8945 3.17603 15.6388V13.5688C3.17629 13.3131 3.27791 13.068 3.45861 12.8871C3.6393 12.7062 3.88435 12.6044 4.14003 12.6038H5.69903C5.90589 12.6038 6.10767 12.5397 6.27656 12.4202C6.44545 12.3008 6.57314 12.1319 6.64203 11.9368C6.95069 11.0516 7.41348 10.2279 8.00903 9.50383C8.14077 9.3443 8.2198 9.14783 8.2352 8.9415C8.2506 8.73518 8.20163 8.52915 8.09503 8.35183L7.29503 7.02183C7.16496 6.80266 7.12708 6.54087 7.18969 6.29382C7.25229 6.04677 7.41028 5.83461 7.62903 5.70383L9.40403 4.63883C9.62369 4.50795 9.88622 4.4693 10.1343 4.53131C10.3823 4.59333 10.5958 4.75098 10.728 4.96983L11.528 6.29783C11.6336 6.47575 11.7922 6.61628 11.9815 6.69981C12.1708 6.78335 12.3814 6.80573 12.584 6.76383C13.6368 6.55184 14.7213 6.55184 15.774 6.76383C15.9766 6.80482 16.1869 6.78202 16.376 6.69857C16.5652 6.61512 16.7238 6.47512 16.83 6.29783L17.63 4.96983C17.7621 4.75104 17.9753 4.59342 18.2232 4.53139C18.4711 4.46937 18.7335 4.508 18.953 4.63883L20.723 5.70383C20.8318 5.76884 20.9266 5.85467 21.0021 5.95639C21.0776 6.05812 21.1323 6.17374 21.1631 6.29664C21.1938 6.41954 21.2 6.5473 21.1813 6.6726C21.1626 6.7979 21.1193 6.91828 21.054 7.02683L20.254 8.35683C20.149 8.53392 20.1011 8.73912 20.1171 8.94441C20.133 9.1497 20.2119 9.34507 20.343 9.50383C20.9383 10.2268 21.4014 11.049 21.711 11.9328C21.78 12.1275 21.9076 12.2961 22.0763 12.4154C22.245 12.5346 22.4464 12.5987 22.653 12.5988H24.211C24.4669 12.5991 24.7122 12.7008 24.8931 12.8818C25.074 13.0627 25.1758 13.308 25.176 13.5638V15.6388Z" fill="white"/>
<path d="M14.176 9.60352C13.1871 9.60352 12.2204 9.89676 11.3982 10.4462C10.5759 10.9956 9.93507 11.7765 9.55663 12.6901C9.17819 13.6037 9.07918 14.6091 9.2721 15.579C9.46503 16.5489 9.94123 17.4398 10.6405 18.139C11.3398 18.8383 12.2307 19.3145 13.2006 19.5074C14.1705 19.7004 15.1758 19.6013 16.0894 19.2229C17.0031 18.8445 17.784 18.2036 18.3334 17.3814C18.8828 16.5591 19.176 15.5924 19.176 14.6035C19.1744 13.2779 18.6471 12.0071 17.7098 11.0697C16.7725 10.1324 15.5016 9.6051 14.176 9.60352ZM14.176 17.6035C13.5827 17.6035 13.0027 17.4276 12.5093 17.0979C12.016 16.7683 11.6315 16.2997 11.4044 15.7516C11.1773 15.2034 11.1179 14.6002 11.2337 14.0182C11.3494 13.4363 11.6351 12.9017 12.0547 12.4822C12.4743 12.0626 13.0088 11.7769 13.5908 11.6612C14.1727 11.5454 14.7759 11.6048 15.3241 11.8319C15.8723 12.0589 16.3408 12.4435 16.6704 12.9368C17.0001 13.4301 17.176 14.0102 17.176 14.6035C17.176 15.3992 16.86 16.1622 16.2973 16.7248C15.7347 17.2874 14.9717 17.6035 14.176 17.6035Z" fill="white"/>
</svg>
