<svg width="29" height="29" viewBox="0 0 29 29" fill="none" xmlns="http://www.w3.org/2000/svg">
<g clip-path="url(#clip0_1511_4072)">
<path d="M4.35225 9.3739C4.10285 9.3739 3.90063 9.57611 3.90063 9.82551C3.90063 10.0749 4.10285 10.2771 4.35225 10.2771H10.6748C10.9242 10.2771 11.1264 10.0749 11.1264 9.82551C11.1264 9.57611 10.9242 9.3739 10.6748 9.3739H9.7716V6.66422H10.6748C10.8636 6.664 11.0325 6.54625 11.098 6.36917C11.1635 6.19188 11.1117 5.99275 10.9683 5.86993L7.80704 3.16025C7.63813 3.01559 7.38895 3.01559 7.22003 3.16025L4.05874 5.86993C3.91541 5.99275 3.86359 6.19188 3.92908 6.36917C3.99457 6.54625 4.16349 6.664 4.35225 6.66422H5.25547V9.3739H4.35225ZM7.51354 4.09766L9.45539 5.76099H5.57169L7.51354 4.09766ZM6.1587 6.66422H8.86838V9.3739H6.1587V6.66422Z" fill="white" stroke="white" stroke-width="0.3"/>
<path d="M4.35225 13.4384H17.9006C18.15 13.4384 18.3522 13.2362 18.3522 12.9868C18.3522 12.7374 18.15 12.5352 17.9006 12.5352H4.35225C4.10285 12.5352 3.90063 12.7374 3.90063 12.9868C3.90063 13.2362 4.10285 13.4384 4.35225 13.4384Z" fill="white" stroke="white" stroke-width="0.3"/>
<path d="M4.35225 17.0507H12.4813C12.7307 17.0507 12.9329 16.8485 12.9329 16.5991C12.9329 16.3497 12.7307 16.1475 12.4813 16.1475H4.35225C4.10285 16.1475 3.90063 16.3497 3.90063 16.5991C3.90063 16.8485 4.10285 17.0507 4.35225 17.0507Z" fill="white" stroke="white" stroke-width="0.3"/>
<path d="M14.2897 19.7607H4.3542C4.1048 19.7607 3.90259 19.963 3.90259 20.2124C3.90259 20.4618 4.1048 20.664 4.3542 20.664H14.2897C14.5391 20.664 14.7413 20.4618 14.7413 20.2124C14.7413 19.963 14.5391 19.7607 14.2897 19.7607Z" fill="white" stroke="white" stroke-width="0.3"/>
<path d="M8.41676 23.374H4.35225C4.10285 23.374 3.90063 23.5762 3.90063 23.8256C3.90063 24.075 4.10285 24.2772 4.35225 24.2772H8.41676C8.66617 24.2772 8.86838 24.075 8.86838 23.8256C8.86838 23.5762 8.66617 23.374 8.41676 23.374Z" fill="white" stroke="white" stroke-width="0.3"/>
<path d="M15.6431 16.1475H13.8366C13.5872 16.1475 13.385 16.3497 13.385 16.5991C13.385 16.8485 13.5872 17.0507 13.8366 17.0507H15.6431C15.8925 17.0507 16.0947 16.8485 16.0947 16.5991C16.0947 16.3497 15.8925 16.1475 15.6431 16.1475Z" fill="white" stroke="white" stroke-width="0.3"/>
<path d="M28.5087 7.65757L26.2462 6.31486C26.1433 6.25312 26.02 6.23548 25.904 6.26569C25.7876 6.29502 25.6879 6.36933 25.6266 6.47253L21.5147 13.4062V6.66394C21.5142 6.60572 21.5025 6.54839 21.4803 6.49458C21.4697 6.47385 21.4576 6.45401 21.4437 6.43548C21.4304 6.40836 21.4143 6.38256 21.3958 6.35875L16.4281 0.93939C16.4259 0.936964 16.4228 0.936082 16.4206 0.933877C16.3873 0.901682 16.3496 0.874559 16.3086 0.85339C16.2962 0.847215 16.2867 0.83641 16.2742 0.830456C16.2177 0.805979 16.1568 0.793189 16.0953 0.792969H1.19209C0.94269 0.792969 0.740479 0.99518 0.740479 1.24458V28.3414C0.740479 28.5908 0.94269 28.793 1.19209 28.793H21.0631C21.3125 28.793 21.5147 28.5908 21.5147 28.3414V20.3296L28.6668 8.277C28.7281 8.17402 28.746 8.05075 28.7164 7.93454C28.6867 7.81833 28.6121 7.71866 28.5087 7.65757ZM17.8069 21.8757L18.8696 22.4966L17.6091 23.3425L17.8069 21.8757ZM16.5469 2.40515L20.0366 6.21232H16.5469V2.40515ZM20.6114 27.8897H1.6437V1.69619H15.6437V6.66394C15.6437 6.91334 15.8459 7.11555 16.0953 7.11555H20.6114V14.793C20.6143 14.8274 20.6211 14.8613 20.6317 14.8942L17.0618 20.9131C17.0497 20.9394 17.0402 20.9665 17.0338 20.9945C17.021 21.0223 17.0111 21.0512 17.0041 21.0807L16.5804 24.2136C16.5562 24.39 16.638 24.564 16.7891 24.6581C16.9401 24.7521 17.1322 24.7487 17.2799 24.6495L19.9724 22.8431C19.9779 22.8393 19.9806 22.8325 19.9854 22.8289C20.0335 22.7948 20.0745 22.7515 20.106 22.7017L20.1093 22.698L20.6114 21.8521V27.8897ZM27.1986 8.9811L26.4665 8.54669L25.7146 8.0997L26.1752 7.32283L27.6615 8.20489L27.1986 8.9811Z" fill="white"/>
<line y1="-0.1" x2="16.59" y2="-0.1" transform="matrix(-0.511987 0.858993 -0.843636 -0.536915 26.4065 7.85059)" stroke="white" stroke-width="0.2"/>
<line y1="-0.1" x2="16.59" y2="-0.1" transform="matrix(-0.511987 0.858993 -0.843636 -0.536915 26.9358 8.16016)" stroke="white" stroke-width="0.2"/>
</g>
<defs>
<clipPath id="clip0_1511_4072">
<rect width="28" height="28" fill="white" transform="translate(0.740479 0.792969)"/>
</clipPath>
</defs>
</svg>