<svg width="29" height="29" viewBox="0 0 29 29" fill="none" xmlns="http://www.w3.org/2000/svg">
<g clip-path="url(#clip0_2709_10222)">
<path d="M24.5028 7.66597L17.9405 1.10363C17.7873 0.950398 17.5782 0.863281 17.3604 0.863281H5.87598C4.51902 0.863281 3.41504 1.96726 3.41504 3.32422V26.4023C3.41504 27.7593 4.51902 28.8633 5.87598 28.8633H22.2822C23.6392 28.8633 24.7432 27.7593 24.7432 26.4023V8.24609C24.7432 8.02242 24.6493 7.81237 24.5028 7.66597ZM18.1807 3.66399L21.9425 7.42578H19.001C18.5487 7.42578 18.1807 7.05779 18.1807 6.60547V3.66399ZM22.2822 27.2227H5.87598C5.42366 27.2227 5.05566 26.8547 5.05566 26.4023V3.32422C5.05566 2.8719 5.42366 2.50391 5.87598 2.50391H16.54V6.60547C16.54 7.96243 17.644 9.06641 19.001 9.06641H23.1025V26.4023C23.1025 26.8547 22.7345 27.2227 22.2822 27.2227Z" fill="white"/>
<path d="M19.001 12.457H9.15723C8.7042 12.457 8.33691 12.8243 8.33691 13.2773C8.33691 13.7304 8.7042 14.0977 9.15723 14.0977H19.001C19.454 14.0977 19.8213 13.7304 19.8213 13.2773C19.8213 12.8243 19.454 12.457 19.001 12.457Z" fill="white"/>
<path d="M19.001 15.7383H9.15723C8.7042 15.7383 8.33691 16.1056 8.33691 16.5586C8.33691 17.0116 8.7042 17.3789 9.15723 17.3789H19.001C19.454 17.3789 19.8213 17.0116 19.8213 16.5586C19.8213 16.1056 19.454 15.7383 19.001 15.7383Z" fill="white"/>
<path d="M19.001 19.0195H9.15723C8.7042 19.0195 8.33691 19.3868 8.33691 19.8398C8.33691 20.2929 8.7042 20.6602 9.15723 20.6602H19.001C19.454 20.6602 19.8213 20.2929 19.8213 19.8398C19.8213 19.3868 19.454 19.0195 19.001 19.0195Z" fill="white"/>
<path d="M15.7197 22.3008H9.15723C8.7042 22.3008 8.33691 22.6681 8.33691 23.1211C8.33691 23.5741 8.7042 23.9414 9.15723 23.9414H15.7197C16.1728 23.9414 16.54 23.5741 16.54 23.1211C16.54 22.6681 16.1728 22.3008 15.7197 22.3008Z" fill="white"/>
</g>
<defs>
<clipPath id="clip0_2709_10222">
<rect width="28" height="28" fill="white" transform="translate(0.0791016 0.863281)"/>
</clipPath>
</defs>
</svg>
